<svg width="164" height="164" viewBox="0 0 164 164" fill="none" xmlns="http://www.w3.org/2000/svg">
<g filter="url(#filter0_dd_308_7308)">
<path d="M96.0125 120.631C91.8266 123.897 86.8984 125.53 82 125.53C77.1016 125.53 72.1853 123.909 67.9994 120.649L6 72.4187V139.75C6 147.617 12.3798 154 20.25 154H143.75C151.62 154 158 147.62 158 140.017V72.4187L96.0125 120.631ZM153.22 64.0766C157.062 61.0484 157.344 55.1287 153.93 51.6227C153.499 51.1797 153.035 50.7644 152.538 50.3805C148.916 47.5406 145.591 44.9281 139 40.0297V75.15C139 75.15 153.22 64.1063 153.22 64.0766ZM82.1188 2H81.8812C76.4069 2 69.1275 7.44172 63.8728 11.5H100.151C94.8844 7.44172 87.6109 2 82.1188 2ZM10.8034 64.1063L25 75.15V40.0297C18.4094 44.9281 15.0725 47.5406 11.4566 50.3906C10.9578 50.7766 10.4947 51.1922 10.0642 51.6375C6.65045 54.8734 6.96188 61.0781 10.8034 64.1063C10.8242 64.1359 10.7827 64.1063 10.8034 64.1063ZM58.25 68.2328H105.75C108.373 68.2328 110.5 66.106 110.5 63.4828C110.5 60.859 108.373 59 105.75 59H58.25C55.6268 59 53.5 61.1262 53.5 63.4828C53.5 66.3625 55.6375 68.2328 58.25 68.2328ZM58.25 49.2328H105.75C108.373 49.2328 110.5 47.106 110.5 44.75C110.5 42.1262 108.373 40.2672 105.75 40.2672H58.25C55.6268 40.2672 53.5 42.3934 53.5 44.75C53.5 47.3625 55.6375 49.2328 58.25 49.2328Z" fill="#0EA5E9"/>
<path d="M129.5 11.5H34.5C29.2542 11.5 25 15.7542 25 20.7328V75.15L73.8359 113.12C78.6453 116.861 85.3755 116.861 90.1819 113.12L139 75.15V21C139 15.7542 134.755 11.5 129.5 11.5ZM105.75 68.2328H58.25C55.6268 68.2328 53.5 66.106 53.5 63.4828C53.5 60.859 55.6268 59 58.25 59H105.75C108.373 59 110.5 61.1262 110.5 63.4828C110.5 66.3625 108.363 68.2328 105.75 68.2328ZM105.75 49.2328H58.25C55.6268 49.2328 53.5 47.106 53.5 44.75C53.5 42.1262 55.6268 40.2672 58.25 40.2672H105.75C108.373 40.2672 110.5 42.3934 110.5 44.75C110.5 47.3625 108.363 49.2328 105.75 49.2328Z" fill="white"/>
</g>
<defs>
<filter id="filter0_dd_308_7308" x="0" y="0" width="164" height="164" filterUnits="userSpaceOnUse" color-interpolation-filters="sRGB">
<feFlood flood-opacity="0" result="BackgroundImageFix"/>
<feColorMatrix in="SourceAlpha" type="matrix" values="0 0 0 0 0 0 0 0 0 0 0 0 0 0 0 0 0 0 127 0" result="hardAlpha"/>
<feOffset dy="4"/>
<feGaussianBlur stdDeviation="3"/>
<feColorMatrix type="matrix" values="0 0 0 0 0 0 0 0 0 0 0 0 0 0 0 0 0 0 0.1 0"/>
<feBlend mode="normal" in2="BackgroundImageFix" result="effect1_dropShadow_308_7308"/>
<feColorMatrix in="SourceAlpha" type="matrix" values="0 0 0 0 0 0 0 0 0 0 0 0 0 0 0 0 0 0 127 0" result="hardAlpha"/>
<feOffset dy="2"/>
<feGaussianBlur stdDeviation="2"/>
<feColorMatrix type="matrix" values="0 0 0 0 0 0 0 0 0 0 0 0 0 0 0 0 0 0 0.06 0"/>
<feBlend mode="normal" in2="effect1_dropShadow_308_7308" result="effect2_dropShadow_308_7308"/>
<feBlend mode="normal" in="SourceGraphic" in2="effect2_dropShadow_308_7308" result="shape"/>
</filter>
</defs>
</svg>
