<svg width="79" height="24" viewBox="0 0 79 24" fill="none" xmlns="http://www.w3.org/2000/svg">
<g clip-path="url(#clip0_308_7827)">
<path d="M9.33831 23.5294H9.30067C7.15358 23.5294 5.40853 21.778 5.40853 19.627V11.1531C5.40853 10.6351 4.98767 10.2131 4.471 10.2131C3.95433 10.2131 3.53346 10.6351 3.53346 11.1531V16.3729H0.577148V11.1531C0.577148 9.00037 2.32391 7.25071 4.46929 7.25071C6.61467 7.25071 8.36313 9.00208 8.36313 11.1531V19.627C8.36313 20.145 8.784 20.567 9.30067 20.567H9.33831C9.85498 20.567 10.2758 20.145 10.2758 19.627V11.1531C10.2758 9.00037 12.0226 7.25071 14.168 7.25071H14.2433C16.3903 7.25071 18.1354 9.00208 18.1354 11.1531V19.3628H15.1791V11.1531C15.1791 10.6351 14.7582 10.2131 14.2415 10.2131H14.1663C13.6496 10.2131 13.2287 10.6351 13.2287 11.1531V19.627C13.2287 21.7797 11.482 23.5294 9.3366 23.5294H9.33831Z" fill="url(#paint0_linear_308_7827)"/>
<path d="M14.1407 5.94529C15.5306 5.94529 16.6573 4.81557 16.6573 3.422C16.6573 2.02843 15.5306 0.89872 14.1407 0.89872C12.7508 0.89872 11.624 2.02843 11.624 3.422C11.624 4.81557 12.7508 5.94529 14.1407 5.94529Z" fill="#7413FF"/>
<path d="M4.39511 5.94532C5.31825 5.94532 6.06659 5.19499 6.06659 4.26942C6.06659 3.34385 5.31825 2.59352 4.39511 2.59352C3.47198 2.59352 2.72363 3.34385 2.72363 4.26942C2.72363 5.19499 3.47198 5.94532 4.39511 5.94532Z" fill="#FF7244"/>
</g>
<g clip-path="url(#clip1_308_7827)">
<path d="M76.774 7.78665C77.0282 7.53239 77.3364 7.40527 77.6966 7.40527C78.0568 7.40527 78.365 7.53239 78.6192 7.78665C78.8735 8.0409 79.0006 8.34908 79.0006 8.70928C79.0006 9.06947 78.8735 9.37765 78.6192 9.63191C78.365 9.88616 78.0568 10.0133 77.6966 10.0133C77.3364 10.0133 77.0282 9.88616 76.774 9.63191C76.5197 9.37765 76.3926 9.06947 76.3926 8.70928C76.3926 8.34908 76.5197 8.0409 76.774 7.78665ZM77.6966 9.90542C78.0221 9.90542 78.3033 9.78985 78.5345 9.55679C78.7656 9.32372 78.8812 9.04058 78.8812 8.70928C78.8812 8.37798 78.7656 8.09483 78.5345 7.86177C78.3033 7.6287 78.0221 7.51313 77.6966 7.51313C77.3711 7.51313 77.086 7.6287 76.8549 7.86177C76.6237 8.09483 76.5062 8.37798 76.5062 8.70928C76.5062 9.04058 76.6218 9.32372 76.8549 9.55679C77.086 9.78985 77.3672 9.90542 77.6966 9.90542ZM78.2263 8.47429C78.2263 8.66112 78.1512 8.7921 77.999 8.86722L78.2764 9.37573H77.974L77.739 8.92501H77.5444V9.37573H77.2671V8.04283H77.7178C77.8738 8.04283 77.9971 8.0852 78.0895 8.16803C78.182 8.25085 78.2263 8.35294 78.2263 8.47621V8.47429ZM77.5444 8.30093V8.67268H77.7178C77.789 8.67268 77.8468 8.65534 77.8873 8.6226C77.9277 8.58793 77.9489 8.54363 77.9489 8.48969C77.9489 8.36449 77.8719 8.30286 77.7178 8.30286H77.5444V8.30093Z" fill="#673AB7"/>
<path d="M38.0073 16.3104C37.2687 17.0157 36.3649 17.3692 35.2995 17.3692C34.2341 17.3692 33.3337 17.0157 32.6002 16.3104C31.8666 15.6051 31.499 14.7395 31.499 13.7151C31.499 12.6907 31.8666 11.825 32.6002 11.1197C33.3354 10.4144 34.2341 10.061 35.2995 10.061C36.3649 10.061 37.267 10.4144 38.0073 11.1197C38.746 11.825 39.1153 12.6907 39.1153 13.7151C39.1153 14.7395 38.746 15.6051 38.0073 16.3104ZM33.9107 15.0847C34.28 15.4447 34.743 15.6248 35.2995 15.6248C35.856 15.6248 36.3224 15.4447 36.6968 15.0847C37.0712 14.7247 37.2584 14.2682 37.2584 13.7134C37.2584 13.1587 37.0712 12.7021 36.6968 12.3421C36.3224 11.9821 35.856 11.8021 35.2995 11.8021C34.743 11.8021 34.28 11.9821 33.9107 12.3421C33.5414 12.7021 33.3559 13.1587 33.3559 13.7134C33.3559 14.2682 33.5397 14.7247 33.9107 15.0847Z" fill="#673AB7"/>
<path d="M45.895 16.3105C45.1564 17.0157 44.2543 17.3692 43.1872 17.3692C42.1201 17.3692 41.2214 17.0157 40.4879 16.3105C39.7543 15.6052 39.3867 14.7395 39.3867 13.7151C39.3867 12.6907 39.7543 11.8251 40.4879 11.1198C41.2214 10.4145 42.1218 10.061 43.1872 10.061C44.2526 10.061 45.1547 10.4145 45.895 11.1198C46.6337 11.8251 47.003 12.6907 47.003 13.7151C47.003 14.7395 46.6337 15.6052 45.895 16.3105ZM41.7984 15.0848C42.1677 15.4448 42.6307 15.6248 43.1872 15.6248C43.7437 15.6248 44.2101 15.4448 44.5845 15.0848C44.9589 14.7248 45.1461 14.2682 45.1461 13.7135C45.1461 13.1587 44.9589 12.7022 44.5845 12.3422C44.2101 11.9822 43.7437 11.8022 43.1872 11.8022C42.6307 11.8022 42.1677 11.9822 41.7984 12.3422C41.4291 12.7022 41.2436 13.1587 41.2436 13.7135C41.2436 14.2682 41.4291 14.7248 41.7984 15.0848Z" fill="#673AB7"/>
<path d="M55.5137 17.1762V7.40526H57.4794V17.1762H55.5137Z" fill="#673AB7"/>
<path d="M53.1452 10.2541V10.5617C52.5682 10.2295 51.9164 10.061 51.1862 10.061C50.1208 10.061 49.2205 10.4144 48.4869 11.1197C47.7534 11.825 47.3857 12.6907 47.3857 13.7151C47.3857 14.7395 47.7534 15.6051 48.4869 16.3104C49.2205 17.0157 50.1208 17.3692 51.1862 17.3692C51.9164 17.3692 52.5682 17.199 53.1452 16.8684V19.9252H55.002V10.2541H53.1452ZM52.5835 15.0864C52.2091 15.4464 51.7428 15.6264 51.1862 15.6264C50.6297 15.6264 50.1667 15.4464 49.7974 15.0864C49.4281 14.7264 49.2426 14.2698 49.2426 13.7151C49.2426 13.1603 49.4281 12.7038 49.7974 12.3438C50.1667 11.9838 50.6297 11.8037 51.1862 11.8037C51.7428 11.8037 52.2091 11.9838 52.5835 12.3438C52.958 12.7038 53.1452 13.1603 53.1452 13.7151C53.1452 14.2698 52.958 14.7264 52.5835 15.0864Z" fill="#673AB7"/>
<path d="M63.611 10.2149V10.5635C63.034 10.2313 62.3822 10.0627 61.652 10.0627C60.5866 10.0627 59.6863 10.4162 58.9527 11.1215C58.2192 11.8268 57.8516 12.6924 57.8516 13.7168C57.8516 14.7412 58.2192 15.6069 58.9527 16.3122C59.6863 17.0175 60.5866 17.3709 61.652 17.3709C62.3822 17.3709 63.034 17.2007 63.611 16.8702V17.2187H65.5019V10.2149H63.611ZM63.0493 15.0881C62.6749 15.4481 62.2086 15.6281 61.652 15.6281C61.0955 15.6281 60.6326 15.4481 60.2632 15.0881C59.8939 14.7281 59.7084 14.2716 59.7084 13.7168C59.7084 13.1621 59.8939 12.7055 60.2632 12.3455C60.6326 11.9855 61.0955 11.8055 61.652 11.8055C62.2086 11.8055 62.6749 11.9855 63.0493 12.3455C63.4238 12.7055 63.611 13.1621 63.611 13.7168C63.611 14.2716 63.4238 14.7281 63.0493 15.0881Z" fill="#673AB7"/>
<path d="M28.9537 14.4876C28.9537 15.0669 28.4635 15.5398 27.8611 15.5398C27.2586 15.5398 26.7684 15.0685 26.7684 14.4876V10.2542H24.7686V14.4893C24.7686 15.0685 24.2784 15.5415 23.6742 15.5415C23.07 15.5415 22.5816 15.0702 22.5816 14.4893V10.2542H20.5801V14.4893C20.5801 16.1289 21.9672 17.4642 23.6742 17.4642C24.4827 17.4642 25.2162 17.1631 25.7676 16.6739C26.3191 17.1631 27.0526 17.4642 27.8611 17.4642C29.5664 17.4642 30.9552 16.1306 30.9552 14.4893V10.2542H28.9554V14.4893L28.9537 14.4876Z" fill="#673AB7"/>
<path d="M74.4979 10.2543V14.4893C74.4979 15.0686 74.0077 15.5415 73.4053 15.5415C72.8028 15.5415 72.3126 15.0702 72.3126 14.4893V10.2543H70.3128V14.4893C70.3128 15.0686 69.8226 15.5415 69.2184 15.5415C68.6142 15.5415 68.1258 15.0702 68.1258 14.4893V10.2543H66.126V14.4893C66.126 16.129 67.5131 17.4643 69.2201 17.4643C70.0286 17.4643 70.7621 17.1632 71.3135 16.6739C71.865 17.1632 72.5985 17.4643 73.407 17.4643C75.1123 17.4643 76.5011 16.1306 76.5011 14.4893V10.2543H74.5013H74.4979Z" fill="#673AB7"/>
</g>
<defs>
<linearGradient id="paint0_linear_308_7827" x1="0.53951" y1="15.9475" x2="18.4338" y2="14.3862" gradientUnits="userSpaceOnUse">
<stop stop-color="#FDD62C"/>
<stop offset="0.27" stop-color="#FF7244"/>
<stop offset="0.63" stop-color="#CC38FF"/>
<stop offset="1" stop-color="#7413FF"/>
</linearGradient>
<clipPath id="clip0_308_7827">
<rect width="17.5582" height="22.6306" fill="white" transform="translate(0.577148 0.898697)"/>
</clipPath>
<clipPath id="clip1_308_7827">
<rect width="58.4197" height="12.5185" fill="white" transform="translate(20.5801 7.40527)"/>
</clipPath>
</defs>
</svg>
