<svg width="418" height="97" viewBox="0 0 418 97" fill="none" xmlns="http://www.w3.org/2000/svg">
<path d="M119.19 45.4393V23.5368H123.821V32.5737H133.222V23.5368H137.842V45.4393H133.222V36.3917H123.821V45.4393H119.19Z" fill="white"/>
<path d="M149.302 23.5368V45.4393H144.671V23.5368H149.302Z" fill="white"/>
<path d="M170.647 30.6166C170.497 30.0961 170.287 29.6362 170.016 29.237C169.745 28.8306 169.414 28.4884 169.021 28.2103C168.636 27.9251 168.194 27.7077 167.695 27.5579C167.203 27.4082 166.658 27.3333 166.059 27.3333C164.94 27.3333 163.956 27.6114 163.107 28.1675C162.266 28.7236 161.61 29.5329 161.14 30.5952C160.669 31.6504 160.434 32.9409 160.434 34.4666C160.434 35.9924 160.665 37.29 161.129 38.3595C161.592 39.4289 162.248 40.2453 163.097 40.8086C163.945 41.3647 164.947 41.6427 166.102 41.6427C167.15 41.6427 168.045 41.4574 168.786 41.0866C169.535 40.7087 170.105 40.1776 170.497 39.4931C170.897 38.8087 171.096 37.9994 171.096 37.0654L172.037 37.2045H166.391V33.718H175.556V36.4772C175.556 38.4023 175.149 40.0564 174.337 41.4395C173.524 42.8156 172.404 43.8779 170.979 44.6265C169.553 45.368 167.92 45.7388 166.08 45.7388C164.027 45.7388 162.223 45.286 160.669 44.3806C159.115 43.4679 157.903 42.1739 157.033 40.4984C156.17 38.8158 155.739 36.8195 155.739 34.5094C155.739 32.7341 155.995 31.1513 156.509 29.761C157.029 28.3636 157.756 27.1801 158.69 26.2104C159.624 25.2408 160.712 24.5028 161.952 23.9966C163.193 23.4904 164.537 23.2373 165.984 23.2373C167.225 23.2373 168.38 23.4191 169.449 23.7827C170.519 24.1392 171.467 24.6454 172.294 25.3014C173.128 25.9573 173.809 26.738 174.337 27.6435C174.864 28.5418 175.203 29.5329 175.353 30.6166H170.647Z" fill="white"/>
<path d="M182.046 45.4393V23.5368H186.677V32.5737H196.077V23.5368H200.697V45.4393H196.077V36.3917H186.677V45.4393H182.046Z" fill="white"/>
<path d="M236.834 31.2048H232.15C232.064 30.5988 231.889 30.0605 231.626 29.5899C231.362 29.1122 231.023 28.7058 230.61 28.3707C230.196 28.0356 229.718 27.779 229.176 27.6007C228.642 27.4225 228.061 27.3333 227.433 27.3333C226.3 27.3333 225.312 27.615 224.471 28.1782C223.63 28.7343 222.977 29.5471 222.514 30.6166C222.05 31.6789 221.819 32.9694 221.819 34.488C221.819 36.0495 222.05 37.3613 222.514 38.4237C222.984 39.486 223.64 40.2881 224.482 40.8299C225.323 41.3718 226.296 41.6427 227.401 41.6427C228.021 41.6427 228.595 41.5607 229.123 41.3968C229.658 41.2328 230.132 40.9939 230.545 40.6802C230.959 40.3594 231.301 39.9708 231.572 39.5145C231.85 39.0582 232.043 38.5377 232.15 37.9531L236.834 37.9745C236.713 38.9798 236.41 39.9494 235.925 40.8834C235.447 41.8103 234.802 42.6409 233.989 43.3753C233.183 44.1025 232.221 44.68 231.102 45.1078C229.989 45.5284 228.731 45.7388 227.326 45.7388C225.373 45.7388 223.626 45.2967 222.086 44.4126C220.553 43.5286 219.341 42.2488 218.45 40.5733C217.566 38.8978 217.124 36.8694 217.124 34.488C217.124 32.0996 217.573 30.0676 218.471 28.3921C219.37 26.7166 220.589 25.4404 222.129 24.5634C223.669 23.6793 225.401 23.2373 227.326 23.2373C228.595 23.2373 229.772 23.4155 230.856 23.772C231.946 24.1285 232.912 24.649 233.754 25.3334C234.595 26.0108 235.28 26.8414 235.807 27.8253C236.342 28.8092 236.684 29.9357 236.834 31.2048Z" fill="white"/>
<path d="M263.293 34.488C263.293 36.8765 262.841 38.9085 261.935 40.584C261.037 42.2595 259.811 43.5392 258.256 44.4233C256.709 45.3003 254.969 45.7388 253.037 45.7388C251.091 45.7388 249.344 45.2967 247.797 44.4126C246.25 43.5286 245.027 42.2488 244.129 40.5733C243.23 38.8978 242.781 36.8694 242.781 34.488C242.781 32.0996 243.23 30.0676 244.129 28.3921C245.027 26.7166 246.25 25.4404 247.797 24.5634C249.344 23.6793 251.091 23.2373 253.037 23.2373C254.969 23.2373 256.709 23.6793 258.256 24.5634C259.811 25.4404 261.037 26.7166 261.935 28.3921C262.841 30.0676 263.293 32.0996 263.293 34.488ZM258.598 34.488C258.598 32.9409 258.367 31.6361 257.903 30.5738C257.447 29.5115 256.802 28.7058 255.968 28.1568C255.133 27.6078 254.157 27.3333 253.037 27.3333C251.918 27.3333 250.941 27.6078 250.107 28.1568C249.273 28.7058 248.624 29.5115 248.161 30.5738C247.704 31.6361 247.476 32.9409 247.476 34.488C247.476 36.0352 247.704 37.3399 248.161 38.4023C248.624 39.4646 249.273 40.2703 250.107 40.8192C250.941 41.3682 251.918 41.6427 253.037 41.6427C254.157 41.6427 255.133 41.3682 255.968 40.8192C256.802 40.2703 257.447 39.4646 257.903 38.4023C258.367 37.3399 258.598 36.0352 258.598 34.488Z" fill="white"/>
<path d="M283.264 23.5368H287.895V37.7606C287.895 39.3577 287.513 40.7551 286.75 41.9529C285.995 43.1507 284.936 44.0847 283.574 44.7549C282.212 45.4179 280.626 45.7495 278.815 45.7495C276.997 45.7495 275.407 45.4179 274.045 44.7549C272.683 44.0847 271.625 43.1507 270.869 41.9529C270.113 40.7551 269.735 39.3577 269.735 37.7606V23.5368H274.366V37.3649C274.366 38.1991 274.548 38.9406 274.911 39.5894C275.282 40.2382 275.803 40.7479 276.473 41.1187C277.143 41.4894 277.924 41.6748 278.815 41.6748C279.713 41.6748 280.494 41.4894 281.157 41.1187C281.827 40.7479 282.344 40.2382 282.708 39.5894C283.079 38.9406 283.264 38.1991 283.264 37.3649V23.5368Z" fill="white"/>
<path d="M294.716 45.4393V23.5368H303.358C305.012 23.5368 306.423 23.8326 307.593 24.4244C308.769 25.009 309.664 25.8397 310.277 26.9163C310.897 27.9857 311.207 29.2441 311.207 30.6914C311.207 32.1459 310.894 33.3972 310.266 34.4453C309.639 35.4862 308.73 36.2847 307.539 36.8409C306.356 37.397 304.923 37.675 303.24 37.675H297.454V33.9533H302.491C303.375 33.9533 304.11 33.8321 304.694 33.5897C305.279 33.3473 305.714 32.9837 305.999 32.4988C306.291 32.014 306.438 31.4116 306.438 30.6914C306.438 29.9642 306.291 29.3511 305.999 28.852C305.714 28.3529 305.275 27.975 304.684 27.7183C304.099 27.4545 303.361 27.3226 302.47 27.3226H299.347V45.4393H294.716ZM306.545 35.4719L311.988 45.4393H306.876L301.55 35.4719H306.545Z" fill="white"/>
<path d="M316.657 27.3547V23.5368H334.646V27.3547H327.94V45.4393H323.363V27.3547H316.657Z" fill="white"/>
<path d="M350.602 45.4393V23.5368H359.371C360.982 23.5368 362.326 23.7756 363.403 24.2533C364.48 24.731 365.289 25.3941 365.831 26.2425C366.372 27.0838 366.643 28.0534 366.643 29.1514C366.643 30.007 366.472 30.7592 366.13 31.408C365.788 32.0497 365.317 32.5773 364.718 32.9908C364.127 33.3972 363.449 33.6859 362.686 33.8571V34.0709C363.521 34.1066 364.301 34.3419 365.029 34.7768C365.763 35.2117 366.358 35.8213 366.815 36.6056C367.271 37.3827 367.499 38.3096 367.499 39.3862C367.499 40.5483 367.21 41.5857 366.633 42.4983C366.062 43.4038 365.217 44.1203 364.098 44.6479C362.979 45.1755 361.599 45.4393 359.959 45.4393H350.602ZM355.232 41.6534H359.007C360.298 41.6534 361.239 41.4075 361.831 40.9155C362.423 40.4164 362.719 39.7534 362.719 38.9263C362.719 38.3203 362.572 37.7855 362.28 37.3221C361.988 36.8587 361.571 36.4951 361.029 36.2313C360.494 35.9675 359.856 35.8356 359.114 35.8356H355.232V41.6534ZM355.232 32.702H358.665C359.3 32.702 359.863 32.5915 360.355 32.3705C360.854 32.1424 361.246 31.8215 361.531 31.408C361.824 30.9945 361.97 30.4989 361.97 29.9214C361.97 29.13 361.688 28.4919 361.125 28.0071C360.569 27.5223 359.777 27.2799 358.751 27.2799H355.232V32.702Z" fill="white"/>
<path d="M377.299 45.4393H372.337L379.898 23.5368H385.865L393.416 45.4393H388.453L382.967 28.5418H382.796L377.299 45.4393ZM376.989 36.8302H388.71V40.4449H376.989V36.8302Z" fill="white"/>
<path d="M399.064 45.4393V23.5368H407.705C409.359 23.5368 410.771 23.8326 411.94 24.4244C413.116 25.009 414.011 25.8397 414.624 26.9163C415.245 27.9857 415.555 29.2441 415.555 30.6914C415.555 32.1459 415.241 33.3972 414.614 34.4453C413.986 35.4862 413.077 36.2847 411.886 36.8409C410.703 37.397 409.27 37.675 407.587 37.675H401.801V33.9533H406.839C407.723 33.9533 408.457 33.8321 409.042 33.5897C409.626 33.3473 410.061 32.9837 410.346 32.4988C410.639 32.014 410.785 31.4116 410.785 30.6914C410.785 29.9642 410.639 29.3511 410.346 28.852C410.061 28.3529 409.623 27.975 409.031 27.7183C408.446 27.4545 407.708 27.3226 406.817 27.3226H403.694V45.4393H399.064ZM410.892 35.4719L416.335 45.4393H411.223L405.897 35.4719H410.892Z" fill="white"/>
<path d="M14.5672 57.7512C13.9792 56.7103 13.5097 55.7955 12.5281 55.0581C10.5411 53.5645 9.42666 51.5388 9.90089 48.9391C9.97202 48.533 10.0574 48.3323 10.5316 48.6077C10.9252 48.841 11.4421 48.7897 11.8405 49.0978C12.0586 49.2658 12.0823 49.0371 12.0633 48.8737C11.9638 48.0009 11.5986 47.2681 11.0295 46.5867C9.45986 44.7057 8.90502 42.61 9.83924 40.2623C10.1001 39.6042 10.0953 39.6369 10.726 39.9403C11.1813 40.1596 11.6176 40.3883 12.0444 40.7337C11.8784 39.8796 12.0918 39.0208 11.6697 38.2086C10.6834 36.2997 10.3609 34.3253 11.2951 32.2903C11.518 31.8096 11.8926 31.4315 12.2151 31.0208C12.4 30.7828 12.5945 30.7548 12.8268 31.0441C13.1588 31.4689 13.5524 31.8516 13.9887 32.2437C13.8938 31.3615 14.4107 30.6101 14.1736 29.6299C13.6188 27.3755 13.9697 25.1912 15.5963 23.3709C16.4072 22.4607 17.0284 22.6101 17.4031 23.7583C17.4932 24.029 17.5548 24.309 17.6544 24.6824C18.0243 23.9917 18.3989 23.4082 18.6455 22.7735C18.7878 22.4141 18.7404 21.9753 18.7594 21.5739C18.8115 20.2904 19.2383 19.1002 19.7789 17.9613C20.2863 16.8925 21.2775 16.2857 22.2828 15.7536C23.108 15.3196 23.3166 15.4643 23.4257 16.4024C23.4399 16.5331 23.4257 16.6871 23.4921 16.7945C23.6486 17.0605 23.7245 17.2192 24.0896 16.8552C24.9811 15.9683 25.2704 14.8482 25.6451 13.7373C25.9533 12.8272 26.3991 11.917 27.1151 11.3196C28.092 10.5028 29.2302 9.83534 30.5248 9.55529C31.0038 9.45261 31.2029 9.67665 31.165 10.2414C31.1318 10.7128 31.0844 11.1842 31.0275 11.7723C31.5776 11.2869 31.8953 10.7642 32.398 10.4281C33.8206 9.47595 35.3524 8.84584 37.1165 8.92986C37.3963 8.94386 37.4864 9.01387 37.3678 9.32192C36.8509 10.6941 35.9404 11.805 34.9967 12.8972C34.7311 13.2099 34.2949 13.2939 33.9345 13.6253C34.5509 13.77 35.0916 13.9147 35.6369 14.022C35.9878 14.092 36.04 14.2041 35.9736 14.5728C35.7981 15.5389 35.0584 16.057 34.385 16.5891C33.0666 17.6206 31.6108 18.3627 29.8609 18.5308C29.1875 18.5961 28.5188 18.7641 27.8312 18.7221C27.5988 18.7081 27.3617 18.7408 27.2005 19.0675C27.8217 19.0675 28.4003 19.0675 28.9741 19.0675C29.1496 19.0675 29.3487 19.0442 29.4578 19.2122C29.5811 19.3989 29.3961 19.5249 29.3298 19.6789C29.0547 20.3184 28.6611 20.8971 28.3434 21.5086C27.5609 23.0068 26.124 23.6556 24.7203 24.3277C23.9331 24.7058 23.0795 24.9718 22.1832 25.0372C21.7564 25.0698 21.4103 25.2705 21.2111 25.6579C21.3296 25.8213 21.434 25.7419 21.5288 25.6859C22.2117 25.2705 22.9704 25.3592 23.715 25.4059C23.9948 25.4199 24.1228 25.5879 24.0564 25.8913C23.8051 27.0722 23.383 28.211 22.7428 29.2145C22.3445 29.8446 21.6568 30.3254 21.0309 30.7781C20.4191 31.2262 19.7694 31.6322 19.0629 31.945C18.6787 32.1176 18.3942 32.393 18.1334 32.8551C18.7499 32.7244 19.096 32.267 19.6414 32.2017C20.0492 32.1503 20.1441 32.155 20.1773 32.6217C20.2531 33.7186 20.1868 34.7874 19.8643 35.8329C19.4565 37.1585 18.5981 38.1666 17.5264 39.0208C17.1612 39.3102 16.7439 39.5389 16.3456 39.7862C16.08 39.9496 15.9377 40.1783 15.8808 40.589C16.4831 40.309 16.8957 39.8889 17.4268 39.6649C18.0101 39.4222 18.1761 39.4968 18.3563 40.0756C18.6787 41.1398 18.8589 42.2273 18.7356 43.3335C18.5934 44.6404 17.9864 45.7699 17.147 46.7687C16.8767 47.0908 16.6633 47.4828 16.2412 47.6649C16.1274 47.7162 16.0421 47.8189 16.1227 47.9449C16.227 48.1036 16.374 48.0522 16.4736 47.9496C16.7629 47.6415 17.166 47.5108 17.5074 47.2821C17.7635 47.1094 17.9959 47.1561 18.1476 47.4408C18.6123 48.3276 19.0249 49.2238 19.3616 50.1806C19.7694 51.3381 19.3758 52.3229 19.1719 53.3404C19.0202 54.0919 18.4938 54.764 18.1334 55.4735C18.0717 55.5948 17.9769 55.7022 17.9437 55.8282C17.901 55.9822 17.9247 56.1689 18.086 56.2296C18.2519 56.2949 18.3041 56.1036 18.3657 55.9962C18.5744 55.6462 18.7451 55.2728 18.9822 54.9414C19.3189 54.4793 19.5798 54.4606 19.9923 54.8574C21.5241 56.3463 22.4203 58.0919 22.3018 60.2809C22.2591 61.065 22.1026 61.8118 21.9319 62.568C21.8418 62.96 21.856 63.3147 22.1406 63.7768C22.3397 63.044 22.297 62.3579 22.776 61.8445C23.0416 61.5598 23.2502 61.1537 23.5253 61.8258C23.5822 61.9659 23.7055 62.0545 23.8525 61.9612C23.9853 61.8725 23.9805 61.7045 23.8999 61.5925C23.4731 60.9717 23.9758 61.023 24.3362 61.023C26.3659 61.023 28.3576 61.3311 30.3256 61.7792C31.5301 62.0545 32.711 62.4046 33.8965 62.7593C35.0157 63.0954 36.2344 63.3801 37.4105 63.1327C38.6055 62.8853 39.8101 62.6893 40.9387 62.1012C43.4189 60.813 46.1172 60.1922 48.9104 59.9729C49.2613 59.9449 49.6122 59.8842 49.9584 59.8188C50.5939 59.6928 51.2104 59.5155 51.8411 59.8795C52.045 59.9962 52.3437 60.0102 52.5903 59.9915C55.412 59.7815 58.0012 60.7337 60.6284 61.5178C62.089 61.9519 63.5733 62.0872 65.1383 61.9192C67.9646 61.6158 70.6866 60.855 73.4656 60.3416C75.0874 60.0429 76.733 60.0055 78.3785 60.0055C78.7579 60.0055 78.8101 60.1876 78.5967 60.4256C77.947 61.1537 77.2783 61.8632 76.6002 62.5586C76.4864 62.6753 76.2872 62.764 76.126 62.764C75.2392 62.778 74.3998 63.072 73.5083 63.0954C72.0619 63.1327 70.7056 63.6461 69.3114 63.9682C67.6184 64.3602 65.9017 64.9623 64.1614 64.6776C62.217 64.3556 60.2395 64.2016 58.3142 63.6975C56.6734 63.2634 54.9804 62.9227 53.3017 62.6846C51.2483 62.3953 49.157 62.4373 47.0751 62.778C45.4011 63.0487 43.8789 63.7021 42.3282 64.2996C39.867 65.2517 37.2919 65.4944 34.7311 65.2144C33.2089 65.0464 31.625 64.8643 30.1407 64.3229C28.9172 63.8748 27.5941 63.8515 26.3279 63.5808C26.1809 63.5481 25.9818 63.5201 25.8869 63.6555C25.7731 63.8188 25.9486 63.9448 26.0481 64.0522C26.9966 65.079 27.2147 66.3252 27.2147 67.6554C27.2147 68.0802 27.2432 68.4909 27.1768 68.9203C27.1009 69.4197 27.3143 69.8351 27.8834 70.2412C27.2811 69.3124 28.0541 68.6776 28.0778 67.9402C28.0826 67.7255 28.3813 67.7348 28.5757 67.8048C31.0559 68.6543 32.8485 70.1992 33.6736 72.7196C33.7163 72.8456 33.759 72.9857 33.8444 73.0837C34.1004 73.3684 34.2142 73.6671 34.0577 74.0405C34.0246 74.1245 34.0293 74.2319 34.0435 74.3252C34.0957 74.6333 34.2569 74.9786 34.5747 74.9133C34.9303 74.8433 34.7217 74.4652 34.7027 74.2179C34.6932 74.0918 34.5699 73.9798 34.532 73.8538C34.4514 73.5551 34.4087 73.2004 34.5604 72.967C34.6742 72.7943 34.9872 73.0277 35.2101 73.0883C35.6938 73.2237 36.2487 73.0743 36.6802 73.4384C36.7371 73.4851 36.8509 73.4804 36.8889 73.4011C36.9505 73.2704 36.8557 73.1677 36.7513 73.121C36.2771 72.897 35.9926 72.4489 35.5658 72.1735C35.4472 72.0988 35.3002 72.0148 35.3476 71.8655C35.4093 71.6648 35.6085 71.7301 35.7507 71.7488C38.0981 72.0382 40.2274 71.4174 42.2665 70.3112C43.5517 69.6158 44.9933 69.3824 46.4207 69.0697C47.3834 68.8596 48.3508 68.8783 49.304 68.6683C50.6128 68.3789 51.9691 68.4209 53.2969 68.6123C54.5963 68.799 55.9099 68.925 57.1903 69.261C58.6319 69.6438 60.0167 70.2319 61.4867 70.5026C63.175 70.8153 64.8774 70.8433 66.5751 70.5213C67.0731 70.4279 67.5805 70.5306 68.1353 70.2645C68.0073 70.7733 67.7038 70.9647 67.424 71.1654C66.651 71.7255 65.8354 72.2295 65.1477 72.911C64.8205 73.2377 64.3416 73.3964 63.7962 73.3637C61.1216 73.191 58.5418 72.4816 55.9146 72.0288C55.0231 71.8748 54.1553 71.5808 53.2732 71.4594C52.4908 71.3474 51.6751 71.2774 50.8831 71.2867C48.0283 71.3147 45.2399 71.7488 42.6459 73.0043C41.7733 73.4244 40.7775 73.4384 39.9049 73.8865C39.4923 74.0965 38.9991 73.7138 38.4822 73.8865C39.0229 74.4886 39.7437 74.7919 40.3127 75.282C40.4597 75.4081 40.6494 75.324 40.8107 75.2307C43.2766 73.8258 45.9939 73.149 48.7871 72.911C50.7124 72.7476 52.6662 72.7336 54.6105 73.023C56.9627 73.3731 59.2057 74.0592 61.4535 74.778C61.6195 74.8293 61.8377 74.8433 61.8377 75.0627C61.8377 75.2587 61.6622 75.3614 61.501 75.4314C60.8323 75.7208 60.2158 76.1035 59.6088 76.4956C59.1156 76.8176 58.5892 76.8176 58.0249 76.6543C55.6348 75.9775 53.1973 75.5621 50.7124 75.4687C48.1848 75.3754 45.771 76.0055 43.3952 76.7849C43.0964 76.883 43.0063 77.023 43.1486 77.2937C43.4189 77.8165 43.7319 78.2785 44.3247 78.5352C45.496 79.0486 46.7242 79.394 47.9335 79.8048C48.7823 80.0941 49.6549 80.3042 50.5038 80.6029C51.3811 80.9109 52.1825 80.5656 52.965 80.3229C54.2881 79.9075 55.6111 79.4967 56.9247 79.0626C57.7119 78.8013 58.6414 78.5492 59.016 77.6111C59.1014 77.401 59.2769 77.2423 59.5235 77.317C59.7511 77.3824 59.6657 77.6017 59.6705 77.7651C59.68 77.9518 59.5993 78.1758 59.8744 78.2365C60.0973 78.2832 60.2538 78.1432 60.3628 77.9751C60.5336 77.7138 60.7138 77.4524 60.8323 77.1723C61.8377 74.7733 63.929 73.7931 66.2716 73.1584C66.6795 73.0463 67.1347 73.1584 67.5331 72.925C67.7133 72.8223 67.756 72.9576 67.7844 73.1117C67.8555 73.4944 67.9172 73.8631 67.7465 74.2459C67.6659 74.4279 67.4904 74.7406 67.8318 74.834C68.1685 74.9273 68.2444 74.6473 68.2871 74.3766C68.4388 73.3591 68.7091 72.3789 69.2118 71.4641C69.9848 70.0498 71.0945 69.0043 72.612 68.3929C72.9582 68.2529 73.3423 68.1782 73.6505 67.9822C74.1864 67.6414 74.3239 67.9215 74.433 68.3649C74.5421 68.8176 74.6274 69.2751 74.6511 69.7418C74.6559 69.8351 74.6464 69.9565 74.7602 69.9845C74.912 70.0218 74.9546 69.8865 74.9926 69.7838C75.1917 69.2424 75.168 68.673 75.1254 68.1175C75.0021 66.4979 75.4668 65.0604 76.4105 63.7488C76.733 63.3007 77.0981 62.8947 77.5771 62.6193C78.0229 62.3626 78.4259 62.0639 78.8148 61.7325C79.2843 61.3357 79.455 61.3918 79.7301 61.9518C79.896 62.2879 79.8059 62.6893 80.0288 63.0067C80.1189 63.1327 80.0952 63.4128 80.3418 63.3287C80.5125 63.2727 80.5505 63.0487 80.522 62.8713C80.4604 62.5073 80.394 62.1432 80.2896 61.7932C79.4503 58.9414 80.5647 56.6963 82.5327 54.7127C82.8647 54.3766 83.1065 54.5726 83.2962 54.848C83.6139 55.3101 83.9032 55.7955 84.1972 56.2763C84.2541 56.3649 84.2257 56.547 84.3917 56.505C84.5624 56.463 84.5671 56.2903 84.5102 56.1689C84.33 55.7815 84.1451 55.3988 83.9364 55.0301C82.8504 53.1211 82.6323 51.1328 83.3341 49.0464C83.5475 48.4116 83.9364 47.8749 84.2921 47.3195C84.4296 47.1048 84.5861 47.0394 84.8232 47.2121C85.2121 47.4968 85.7053 47.6508 85.9518 48.1129C86.004 48.2109 86.0989 48.3276 86.2269 48.2389C86.3502 48.1503 86.2696 48.0102 86.2079 47.9262C86.0751 47.7349 85.9376 47.5295 85.7574 47.3941C84.4154 46.386 83.8416 44.9904 83.6471 43.4082C83.576 42.8154 83.557 42.2133 83.576 41.6112C83.5997 40.9344 83.9601 40.407 84.2399 39.8376C84.3632 39.5949 84.5339 39.6695 84.7331 39.7676C85.2879 40.0476 85.9187 40.1783 86.5019 40.7104C86.3692 40.183 86.0989 39.9636 85.8096 39.7956C84.5244 39.0628 83.6519 37.9473 82.95 36.7151C82.6275 36.1456 82.2671 35.5389 82.3146 34.8201C82.3288 34.568 82.2577 34.3207 82.1344 34.092C81.9826 33.8026 81.8735 33.5412 82.1913 33.2612C82.3904 33.0838 82.2909 32.8364 82.2245 32.6077C82.1391 32.3043 82.2008 32.1223 82.6038 32.1877C83.0496 32.2577 83.5001 32.2717 83.9032 32.5237C84.0597 32.6217 84.2589 32.6871 84.6003 32.5517C83.9554 32.2157 83.4242 31.8843 82.8457 31.6509C81.6933 31.1842 80.7259 30.4887 79.9624 29.5272C79.1278 28.4771 78.5113 27.3289 78.3738 25.9613C78.3358 25.5879 78.4117 25.3919 78.8053 25.3919C79.0235 25.3919 79.2369 25.3639 79.4408 25.2845C79.6969 25.1865 79.9008 25.1912 79.9861 25.5086C80.0193 25.6253 80.1094 25.7093 80.247 25.7046C80.2944 25.7046 80.3703 25.6626 80.3845 25.6206C80.4319 25.4619 80.3181 25.3732 80.2043 25.2892C79.9055 25.0745 79.621 24.8738 79.2321 24.7944C77.8474 24.5144 76.6192 23.9683 75.4715 23.0675C74.5658 22.3627 73.973 21.5226 73.3992 20.6031C73.1621 20.2204 73.3091 19.6929 72.8301 19.3849C72.6689 19.2822 72.9629 19.1702 73.1004 19.1702C73.5509 19.1609 74.0015 19.1749 74.452 19.1749C74.6132 19.1749 74.8598 19.2822 74.8883 19.0302C74.9167 18.8015 74.7033 18.6755 74.4899 18.7081C73.3613 18.8715 72.3037 18.4654 71.2605 18.2134C69.1217 17.6953 67.2912 16.6451 66.2764 14.5728C66.1436 14.3021 66.1341 14.106 66.4898 14.0967C66.9972 14.0827 67.4287 13.8073 67.9172 13.742C68.0357 13.728 68.1638 13.6953 68.1922 13.5646C68.2254 13.4246 68.1021 13.3686 68.0025 13.3032C66.5941 12.3978 65.7405 11.0769 65.1145 9.58797C64.9438 9.17723 65.0007 9.01387 65.5081 8.9812C67.552 8.83651 69.2071 9.64398 70.6866 10.9322C70.8384 11.0629 70.9522 11.3476 71.1941 11.2496C71.4407 11.1516 71.3268 10.8715 71.3221 10.6708C71.2842 9.4106 71.4833 9.29859 72.7163 9.77C75.2202 10.7222 76.586 12.5611 77.1266 15.0815C77.2546 15.6743 77.6482 16.1224 78.0655 16.5331C78.2647 16.7291 78.3074 17.1959 78.6204 17.1072C78.9049 17.0278 78.9334 16.5984 79.014 16.3044C79.289 15.3242 79.3459 15.3382 80.2517 15.8237C81.6317 16.5658 82.6038 17.6346 83.1113 19.0768C83.4005 19.8936 83.6424 20.7478 83.5997 21.6206C83.5523 22.5167 84.0218 23.2589 84.2494 24.0757C84.3347 24.3931 84.5197 24.2717 84.624 24.043C84.8185 23.6089 85.1599 23.2869 85.4729 22.9415C85.6768 22.7174 85.8191 22.7268 86.0751 22.8388C87.1469 23.3242 87.5689 24.3137 87.9578 25.2705C88.5269 26.6801 88.8019 28.141 88.1048 29.6066C87.8819 30.078 88.0669 30.5121 88.2091 30.9555C88.285 31.1935 88.3609 31.4362 88.4368 31.6742C88.4842 31.8283 88.3609 32.0756 88.598 32.113C88.7592 32.141 88.8161 31.9169 88.911 31.8003C89.0485 31.6369 89.1576 31.4409 89.3141 31.3008C89.6555 31.0068 89.9401 30.9321 90.3621 31.3242C92.0978 32.9204 92.0124 35.9496 90.8031 37.8399C90.5565 38.2226 90.4285 38.5867 90.4475 39.0301C90.4712 39.6042 90.4854 40.183 90.1392 40.7197C90.7036 40.295 91.2394 39.9123 91.9176 39.7256C92.3017 39.6182 92.4487 39.7302 92.5862 40.0523C93.4635 42.1339 93.1695 44.0569 91.8132 45.8492C91.4054 46.3906 90.898 46.8714 90.6134 47.4922C90.3669 48.0382 90.2104 48.6217 90.125 49.3171C90.6182 49.0744 91.0023 48.8504 91.4149 48.687C92.0266 48.449 92.2922 48.5797 92.4582 49.2051C92.6763 50.0079 92.6526 50.792 92.3396 51.5902C91.8701 52.7804 91.192 53.8259 90.3289 54.764C89.9306 55.1934 89.3236 55.3334 88.9205 55.7862C88.5458 56.2109 88.3277 56.729 87.9578 57.1584C87.7823 57.3591 87.9056 57.5878 88.2376 57.4805C88.6976 57.3311 89.1671 57.3918 89.6318 57.3498C90.0302 57.3171 90.0918 57.4384 90.106 57.7792C90.1535 58.9554 89.5464 59.8935 88.9916 60.8503C88.6928 61.3684 88.1427 61.6811 87.7491 62.0872C86.9762 62.876 85.9708 63.0907 85.0982 63.5948C84.4865 63.9448 84.1119 64.5843 83.6566 65.1117C83.4195 65.3871 83.6851 65.4151 83.8985 65.4104C84.3917 65.3964 84.8801 65.3637 85.3733 65.3637C85.7669 65.3637 85.9092 65.4758 85.7622 65.9378C84.7853 68.9763 82.3904 70.1992 79.474 70.7546C79.1325 70.82 78.9334 71.0487 78.6678 71.212C78.1604 71.5294 77.6814 71.8981 77.1029 72.0942C77.2167 72.3416 77.3969 72.2902 77.5391 72.3089C77.7525 72.3322 77.9707 72.3089 78.1888 72.3322C78.6393 72.3742 79.1847 72.4349 79.3934 72.8036C79.5593 73.0977 79.0993 73.4197 78.9144 73.7278C77.9612 75.31 76.3915 75.9821 74.6986 76.4769C74.1674 76.6309 73.6505 76.7429 73.0815 76.6963C72.4365 76.6449 71.839 76.9623 71.2273 77.121C70.6677 77.261 70.184 77.6391 69.4916 77.6998C70.1365 78.3252 70.8953 78.3999 71.6446 78.6753C71.3316 79.1747 70.9664 79.6134 70.5159 79.9821C69.117 81.1257 67.4714 81.5364 65.6931 81.5737C64.536 81.5971 63.3741 81.6904 62.2313 81.401C62.0795 81.3637 61.9183 81.3544 61.7618 81.359C61.1358 81.373 61.041 81.5504 61.3777 82.0918C61.188 82.2412 60.9651 82.1805 60.7659 82.1525C59.6515 81.9891 58.5845 82.3765 57.4843 82.4045C57.4132 82.4045 57.3041 82.4045 57.3041 82.5072C57.3041 82.5726 57.3515 82.6566 57.4037 82.6939C57.6835 82.8806 57.9917 83.0066 58.3237 83.0626C59.3907 83.24 60.2443 83.8048 60.8845 84.6076C61.5484 85.443 61.7096 86.4745 61.61 87.52C61.5674 87.9541 61.2354 87.8001 60.9841 87.6741C59.7179 87.0486 58.4517 86.4232 57.1192 85.9471C56.0474 85.5644 55.0184 85.079 53.9846 84.6309C53.1926 84.2855 52.3437 84.0241 51.5897 83.5807C51.3431 83.436 51.0965 83.3894 50.812 83.548C49.2044 84.4582 47.4024 84.9296 45.7189 85.6811C44.3247 86.3065 42.8498 86.7499 41.5125 87.506C40.8202 87.8981 40.7253 87.8281 40.7443 87.0626C40.7585 86.4278 40.7206 85.7977 41.0525 85.1956C41.5125 84.3602 42.2144 83.7907 43.049 83.3987C43.6465 83.1186 44.2772 82.8759 44.9411 82.7639C45.0976 82.7359 45.2304 82.6752 45.3205 82.4465C44.0117 82.4605 42.7977 81.9471 41.5125 82.1665C41.1806 82.2225 40.8865 82.2645 40.9814 81.7278C41.0525 81.3217 40.6542 81.3497 40.3934 81.387C39.6773 81.4897 38.9707 81.6251 38.2356 81.6111C37.1117 81.5877 35.9783 81.6344 34.8782 81.4524C33.5077 81.2283 32.36 80.4862 31.3737 79.5387C30.5817 78.7779 30.6102 78.7546 31.6108 78.4325C31.7578 78.3859 31.9237 78.3625 32.0565 78.2832C32.3648 78.0965 32.4786 77.8771 32.0992 77.6251C31.2978 77.093 30.373 76.7429 29.4578 76.7476C28.2817 76.7569 27.2384 76.4022 26.2331 75.9588C24.9242 75.3801 23.7339 74.5959 23.0084 73.2797C22.757 72.827 22.904 72.6823 23.3214 72.5329C23.8999 72.3322 24.5069 72.3322 25.0902 72.2529C25.1471 72.0475 25.0001 72.0242 24.9053 71.9775C23.6818 71.3894 22.5674 70.6473 21.1921 70.3019C19.4612 69.8678 18.1097 68.7243 17.0711 67.2634C16.7439 66.8013 16.7344 66.2412 16.54 65.7371C16.4499 65.5084 16.6443 65.3497 16.9194 65.3591C17.3319 65.3684 17.7445 65.3591 18.1571 65.3777C18.4132 65.3918 18.6218 65.3451 18.821 65.1117C18.195 64.8036 17.7872 64.2716 17.3225 63.7908C17.0853 63.5481 16.7676 63.4314 16.4546 63.3147C14.1926 62.4793 13.0118 60.715 12.2767 58.582C12.1772 58.2926 12.1629 57.9752 12.1155 57.6718C12.0776 57.4478 12.2151 57.3684 12.4095 57.3218C12.7794 57.2284 13.1303 57.2097 13.5002 57.3684C13.799 57.4991 14.0646 57.7138 14.534 57.7278L14.5672 57.7512ZM34.7359 78.3859C33.9155 78.1805 33.1899 78.6192 32.4169 78.7079C31.8099 78.7733 31.7578 79.044 32.1514 79.5154C32.3316 79.7301 32.5639 79.8701 32.8011 80.0101C34.807 81.1723 36.9884 81.3637 39.241 81.0836C39.6393 81.0323 40.0567 80.953 40.3981 80.6869C40.5736 80.5516 40.6494 80.3835 40.4171 80.2902C39.8433 80.0521 39.4497 79.5481 38.8948 79.31C37.5717 78.7406 36.1633 78.5026 34.7359 78.3905V78.3859ZM64.8822 81.345C65.7832 81.1817 66.6178 81.0463 67.443 80.8783C68.491 80.6589 69.4347 80.2062 70.2266 79.4874C70.3642 79.3614 70.5633 79.2213 70.5112 79.0113C70.459 78.8013 70.2267 78.7406 70.037 78.7219C69.2877 78.6519 68.5811 78.4279 67.8081 78.3952C66.5372 78.3392 65.4512 78.8993 64.2657 79.072C63.3078 79.212 62.7814 80.1362 61.8709 80.3695C61.7808 80.3929 61.7001 80.4769 61.7381 80.5936C61.7855 80.7196 61.9088 80.7476 62.0226 80.7756C62.9805 81.0463 64.0049 80.967 64.8869 81.3497L64.8822 81.345ZM61.1643 79.2353C62.4257 78.932 63.6539 78.5119 64.6451 77.6718C65.6077 76.855 66.5182 75.9635 66.9118 74.7079C67.0541 74.2552 66.689 73.6111 66.3333 73.7418C65.6599 73.9845 64.9818 74.2319 64.351 74.5586C63.2935 75.1093 62.5585 76.0522 61.7476 76.8783C61.2496 77.387 61.0599 78.0825 60.8703 78.7546C60.8086 78.9693 60.7564 79.2493 61.1643 79.2307V79.2353ZM84.8185 55.3381C85.0366 54.9834 85.0982 54.512 85.4634 54.2646C86.3976 53.6252 86.7106 52.771 86.5968 51.6648C86.483 50.582 86.2553 49.5878 85.4539 48.7757C84.5102 47.8189 84.3774 47.8515 83.851 49.1164C83.6045 49.7045 83.7325 50.3533 83.4717 50.9227C83.3294 51.2261 83.3768 51.5108 83.4574 51.8235C83.7704 53.0417 84.1877 54.2179 84.8185 55.3381ZM83.8558 58.2319C84.2304 57.2611 83.3152 56.4956 83.0354 55.5575C82.9785 55.3754 82.8362 55.4688 82.7082 55.5575C80.816 56.911 80.3797 59.1747 80.7022 61.135C80.7496 61.4338 80.9156 61.7138 81.0436 61.9939C81.2001 62.3299 81.3851 62.4466 81.6791 62.0919C81.8641 61.8725 82.0822 61.6345 82.3383 61.5271C83.2962 61.1304 83.595 60.3136 83.7752 59.4268C83.8463 59.0907 83.8273 58.736 83.8605 58.2366L83.8558 58.2319ZM85.2026 61.3684C85.2263 60.6263 85.2026 60.617 84.5339 60.9717C84.3774 61.051 84.2209 61.1397 84.0597 61.2004C81.4515 62.2039 80.3608 64.3322 79.768 66.8246C79.7395 66.9367 79.6969 67.0627 79.8107 67.1467C79.896 67.212 79.9956 67.17 80.0857 67.1187C81.4752 66.3439 82.969 65.7091 83.9269 64.3556C84.5671 63.4501 85.2121 62.5446 85.2026 61.3684ZM35.3429 73.9098C35.4188 74.4979 35.5705 75.0253 35.8835 75.5434C36.8319 77.0977 38.2404 78.0872 39.8717 78.8106C40.3317 79.016 40.8439 79.114 41.3323 79.2447C41.5125 79.2914 41.8113 79.3567 41.6595 79.0113C41.3465 78.2832 41.1616 77.4524 40.6257 76.8783C39.2078 75.3707 37.8183 73.7371 35.3429 73.9098ZM27.6889 18.106C29.1211 18.26 30.4062 17.98 31.6534 17.4993C33.0097 16.9718 34.3565 16.4211 35.0678 15.0209C35.1769 14.8108 35.4045 14.6008 34.954 14.5401C33.3844 14.3394 31.8716 14.5028 30.4489 15.2216C29.9842 15.4549 29.5337 15.665 29.1353 16.0524C28.5046 16.6545 28.4477 17.5833 27.6937 18.106H27.6889ZM21.8039 60.2062C21.7896 58.2132 21.1399 56.7943 19.8169 55.6648C19.5655 55.4501 19.5181 55.6135 19.3853 55.7722C18.5175 56.7943 18.4511 57.9985 18.6076 59.2261C18.7072 59.9915 18.8874 60.7897 19.6319 61.2237C20.0682 61.4758 20.514 61.6765 20.8744 62.0545C21.1115 62.3019 21.3201 62.1479 21.4245 61.8398C21.6331 61.2191 21.9224 60.617 21.8039 60.2062ZM74.0157 69.4664C73.9967 68.869 73.7011 68.673 73.1289 68.8783C73.053 68.9063 72.9771 68.925 72.906 68.9577C70.6724 69.9192 69.4632 71.6601 68.9795 73.9518C68.932 74.1852 69.0316 74.3532 69.2972 74.3019C70.3168 74.0965 71.398 73.9752 72.1425 73.1677C72.8017 72.4536 73.3945 71.6788 73.7738 70.7686C73.9493 70.3486 74.0346 69.9192 74.0204 69.4711L74.0157 69.4664ZM86.8481 37.0745C86.8955 36.7897 86.7438 36.4957 86.5968 36.197C85.9518 34.9181 85.0034 33.9193 83.7372 33.2098C83.4859 33.0698 83.263 32.8038 82.95 33.0231C82.6418 33.2425 82.509 33.5692 82.5754 33.9379C82.6323 34.26 82.7461 34.5727 82.8125 34.8948C83.2108 36.8738 84.5813 38.148 86.132 39.2775C86.2838 39.3895 86.4688 39.4082 86.4735 39.1795C86.4925 38.4747 86.8481 37.8399 86.8481 37.0745ZM15.5157 36.8271C15.5536 37.6392 15.914 38.316 15.8808 39.0721C15.8666 39.4175 16.1986 39.3055 16.3598 39.1795C16.8388 38.8107 17.3035 38.4233 17.7587 38.0266C18.9538 36.9951 19.5276 35.6462 19.7837 34.1386C19.8501 33.7466 19.6699 33.4292 19.4612 33.1118C19.3664 32.9671 19.281 32.9438 19.1245 33.0185C17.5453 33.7606 16.3218 34.8481 15.6153 36.4537C15.5536 36.5937 15.5346 36.7477 15.5157 36.8224V36.8271ZM87.6353 44.6544C87.4741 43.1141 86.9667 41.7139 85.4444 40.8644C85.1741 40.715 84.8896 40.3697 84.662 40.4117C84.3016 40.4723 84.515 40.9297 84.4201 41.2051C83.9981 42.456 84.1688 43.6602 84.7046 44.8551C85.0982 45.7279 85.8855 46.288 86.3834 47.0674C86.464 47.1934 86.6347 47.3101 86.7438 47.0674C87.0947 46.2973 87.6211 45.5925 87.6353 44.6497V44.6544ZM84.2304 29.7139C84.2826 29.4432 84.164 29.2192 84.0123 29.0138C82.9121 27.5062 81.5795 26.3254 79.6447 25.9706C79.2037 25.8913 79.1325 26.0687 79.1705 26.4374C79.2653 27.3569 79.768 28.0897 80.228 28.8551C80.8113 29.8213 81.736 30.3674 82.6702 30.9088C83.0544 31.1282 83.5001 31.2542 83.8653 31.5249C83.9554 31.5902 84.0502 31.7069 84.1735 31.6369C84.2968 31.5716 84.2589 31.4315 84.2446 31.3242C84.1545 30.7874 84.0929 30.2507 84.2352 29.7139H84.2304ZM81.1195 25.5226C80.3655 24.7664 80.0051 23.959 79.8202 23.1188C79.6684 22.4514 79.3459 22.0033 78.8385 21.5599C77.5107 20.3931 76.0169 19.721 74.2101 19.8003C74.0299 19.8096 73.8307 19.847 73.9303 20.0383C74.1817 20.5284 74.1674 21.1725 74.6938 21.5039C74.9831 21.6906 75.1917 21.9333 75.4241 22.1667C76.5338 23.2775 77.7858 24.127 79.4266 24.239C79.9103 24.2717 80.228 24.4817 80.4035 24.9345C80.4983 25.1725 80.5931 25.4479 81.1195 25.5226ZM15.8334 51.8982C15.8049 52.575 15.7386 53.3031 16.3313 53.7325C16.7297 54.0172 17.0474 54.2739 17.1992 54.7407C17.2466 54.8947 17.3651 55.1001 17.5548 55.0861C17.7493 55.0721 17.7825 54.8434 17.8583 54.694C18.5175 53.3731 19.0818 52.0756 18.7783 50.4933C18.6313 49.7139 18.4037 49.0464 18.0006 48.3883C17.773 48.0149 17.6022 48.0336 17.2893 48.3276C16.2365 49.3125 16.0136 50.596 15.8287 51.8982H15.8334ZM23.0937 26.6661C23.1601 25.9146 23.1649 25.9426 22.4346 26.05C20.8127 26.288 19.7647 27.3569 18.7167 28.4444C17.8583 29.3359 18.4227 30.4467 18.2567 31.4409C18.2282 31.5996 18.4037 31.5949 18.5128 31.5155C19.3237 30.9041 20.4381 30.8014 21.1352 29.9986C21.9983 29.0045 22.9847 28.0803 23.0937 26.6614V26.6661ZM33.0714 74.2085C33.3796 74.2785 33.4792 74.1618 33.4081 73.8678C33.2658 73.3077 33.1378 72.7476 32.9291 72.1969C32.6588 71.4874 32.0186 71.0907 31.625 70.4979C30.999 69.5644 30.0174 69.1724 29.0025 68.827C28.7085 68.729 28.5852 68.855 28.4287 69.135C28.13 69.6624 28.4951 70.0312 28.6279 70.4512C29.0357 71.7348 29.7139 72.855 30.8757 73.6064C31.5301 74.0265 32.3316 74.0312 33.0714 74.2085ZM18.1476 42.7921C18.1476 42.5587 18.1618 42.33 18.1476 42.0966C18.1286 41.8492 18.0812 41.6019 18.0338 41.3545C17.8631 40.435 17.6971 40.3697 16.8957 40.8784C16.8482 40.9111 16.8056 40.9531 16.7534 40.9764C15.8713 41.3685 15.7101 42.2506 15.288 42.9741C14.4724 44.3836 14.7901 45.6672 15.6105 46.9367C15.8097 47.2448 16.0326 47.2354 16.2175 46.9974C17.1944 45.7465 18.2804 44.533 18.1523 42.7874L18.1476 42.7921ZM79.4692 64.2856C79.474 64.1502 79.4882 64.0149 79.4882 63.8795C79.4882 63.4594 79.5736 62.932 79.1373 62.736C78.72 62.5446 78.3216 62.876 77.9802 63.1467C77.9185 63.1934 77.8569 63.2447 77.8 63.2961C76.2588 64.687 75.666 66.4373 75.7419 68.4536C75.7561 68.813 75.9126 68.841 76.1829 68.7243C76.6855 68.5049 77.1882 68.2902 77.6814 68.0475C77.9233 67.9262 78.2363 67.8748 78.3738 67.6321C78.9666 66.5913 79.6637 65.5784 79.474 64.2856H79.4692ZM28.3718 20.0383C28.3576 19.889 28.2153 19.7816 27.9877 19.7956C27.4803 19.819 26.9634 19.7676 26.4702 19.9357C24.3457 20.6638 22.6337 21.7933 22.2164 24.183C22.1785 24.4117 22.1453 24.5097 22.4393 24.4584C24.4785 24.1037 26.1952 23.1562 27.5894 21.6673C27.983 21.2472 28.2817 20.7291 28.3718 20.043V20.0383ZM68.3345 14.4281C68.2966 14.4281 68.2539 14.4281 68.216 14.4281C67.8366 14.4701 67.2628 14.2741 67.1205 14.5961C66.9735 14.9322 67.5188 15.1842 67.7607 15.4689C69.3304 17.3406 71.4691 17.9707 73.8213 18.1154C73.973 18.1247 74.2433 18.1387 74.1627 17.9473C73.9161 17.3499 73.9635 16.6218 73.4039 16.1597C71.9386 14.9555 70.1887 14.5448 68.3345 14.4234V14.4281ZM26.603 67.9448C26.5366 66.75 26.3659 65.6345 25.7352 64.631C25.2894 63.9262 24.5496 63.5154 24.0137 62.8993C23.5158 62.3252 23.1554 62.4279 22.9372 63.1607C22.904 63.2727 22.8946 63.3894 22.8756 63.5014C22.6432 65.0137 23.2929 66.2879 23.9853 67.5574C24.0374 67.6508 24.1418 67.7488 24.2461 67.7815C24.7583 67.9402 25.1803 68.2622 25.6545 68.4909C25.9438 68.6309 26.2947 68.967 26.5413 68.8176C26.8069 68.6543 26.5698 68.2109 26.603 67.9448ZM80.0857 68.1269C80.1 67.8328 80.0905 67.8421 79.7253 67.9215C77.8569 68.3229 76.2398 69.191 74.893 70.5166C74.3808 71.0207 74.0252 71.6554 73.7122 72.3042C73.6173 72.5002 73.66 72.6776 73.807 72.8363C73.954 72.995 74.1247 72.9577 74.2955 72.8876C75.7656 72.2855 77.2499 71.7021 78.5255 70.7546C79.3744 70.1245 79.9672 69.2657 80.0857 68.1269ZM84.496 58.0032C84.5339 58.4373 84.5624 58.764 84.5956 59.0907C84.6098 59.2447 84.6051 59.4361 84.7568 59.5061C84.9512 59.5948 85.0888 59.4221 85.2073 59.3101C85.8807 58.6893 86.5826 58.0872 87.1943 57.4104C87.6306 56.925 88.138 56.3649 88.2566 55.7675C88.3988 55.0301 88.6454 54.2553 88.4225 53.4478C88.3087 53.0464 88.1997 52.9344 87.7918 53.0511C87.2085 53.2191 86.8434 53.6532 86.4356 54.0359C85.2453 55.1421 84.7853 56.5843 84.496 58.0032ZM89.831 38.9834C89.812 38.2833 89.4801 37.2798 88.6454 36.4817C88.4984 36.3417 88.2091 36.0243 88.1143 36.3837C87.9483 37.0231 87.4694 37.4759 87.2512 38.0873C86.8529 39.1935 87.0189 40.267 87.2892 41.3265C87.4599 41.9939 87.7823 42.6287 88.1665 43.2168C88.2518 43.3475 88.4368 43.7115 88.617 43.3148C89.1908 42.0686 89.8215 40.8317 89.831 38.9834ZM28.5473 15.0909C28.6042 14.6848 28.4335 14.5588 28.0351 14.6335C27.3191 14.7688 26.7073 15.1189 26.1382 15.5343C24.5923 16.6685 23.7434 18.2134 23.4684 20.0757C23.4162 20.4351 23.5585 20.6078 23.9473 20.3931C25.1187 19.7536 26.2663 19.0768 27.1436 18.0453C27.8739 17.1865 28.3529 16.2017 28.5473 15.0909ZM15.454 39.8749C15.3165 38.4794 14.7854 37.3218 14.112 36.2203C14.0314 36.085 13.8843 36.0243 13.78 36.1783C13.1588 37.0978 12.5281 38.0499 12.5328 39.1888C12.5376 40.3183 12.898 41.3965 13.3722 42.4327C13.5192 42.75 13.6804 43.0628 13.965 43.2868C14.093 43.3895 14.24 43.4828 14.3396 43.2541C14.8186 42.1293 15.2074 40.9764 15.454 39.8749ZM30.0648 14.6708C30.2687 14.3394 30.5343 14.3207 30.852 14.3814C31.0702 14.4234 31.2788 14.3674 31.4732 14.2647C32.2415 13.8773 33.0097 13.4946 33.778 13.1072C35.2386 12.3744 35.9641 11.0535 36.6565 9.72332C34.9493 9.26591 33.6641 10.1387 32.4976 11.0535C31.331 11.973 30.5011 13.2052 30.0695 14.6615L30.0648 14.6708ZM17.9295 58.638C17.6639 57.3404 17.5691 55.9682 16.687 54.8574C16.0942 54.1106 15.4303 53.4245 14.5435 52.9951C14.3064 52.8784 14.0314 52.7897 13.9887 53.1164C13.8986 53.7418 13.6899 54.4606 13.9033 54.9974C14.2163 55.7815 14.5198 56.631 15.1647 57.2611C15.7765 57.8585 16.3835 58.4606 17.0095 59.0487C17.2181 59.2447 17.4932 59.5435 17.7445 59.4454C18.0385 59.3288 17.8441 58.9274 17.9247 58.638H17.9295ZM18.3278 26.4561C18.3278 26.6474 18.3278 26.8435 18.3278 27.0348C18.3278 27.1842 18.2756 27.3615 18.4369 27.4596C18.6123 27.5669 18.7309 27.4082 18.8495 27.3242C19.8927 26.5821 20.8032 25.7233 21.4197 24.5844C21.9461 23.6136 22.1263 22.5868 21.9841 21.5039C21.9509 21.2519 21.9082 20.9578 21.5241 21.1072C20.974 21.3125 20.4286 21.5366 20.0113 21.9707C18.8115 23.2309 18.3088 24.7524 18.3231 26.4561H18.3278ZM86.9714 49.4805C86.9382 50.1106 86.9619 50.2226 87.1753 50.7827C87.4694 51.5388 87.5689 51.5715 88.1759 50.9927C89.2904 49.9286 89.8073 48.5657 90.0776 47.1048C90.2246 46.3113 89.9732 45.5785 89.6318 44.8691C89.5417 44.6777 89.4184 44.5097 89.186 44.6964C88.5174 45.2425 87.7823 45.8072 87.5832 46.6474C87.3508 47.6228 86.7011 48.5283 86.9714 49.4851V49.4805ZM66.1626 78.1245C66.2195 78.1152 66.2811 78.1198 66.338 78.1012C67.4809 77.7604 68.6807 77.6297 69.7951 77.2003C70.9522 76.7523 72.1235 76.3369 72.7495 75.156C72.906 74.8573 73.2569 74.5492 73.0293 74.2132C72.8017 73.8725 72.4033 74.1525 72.1046 74.2038C71.1609 74.3625 70.1555 74.3905 69.3114 74.8526C68.4483 75.324 67.5852 75.8234 66.9213 76.5889C66.6226 76.9343 66.1483 77.1257 65.897 77.5317C65.6741 77.8865 65.7785 78.1152 66.1626 78.1245ZM17.1517 61.1537C17.2987 62.0125 17.6117 63.0067 18.2472 63.7768C19.2715 65.023 20.5709 65.9938 22.1216 66.5773C22.4441 66.6986 22.5958 66.6099 22.5247 66.2786C22.4298 65.8445 22.3397 65.4011 22.1643 64.9997C21.2443 62.9227 19.6319 61.5645 17.5121 60.7523C17.2134 60.6403 17.1043 60.6916 17.1565 61.1491L17.1517 61.1537ZM36.8177 77.7698C36.3672 77.5317 36.0305 77.2377 35.7602 76.883C35.1627 76.1035 34.4514 75.5061 33.5361 75.086C32.3316 74.5352 31.0559 74.2645 29.7708 74.0032C29.5811 73.9658 29.363 73.9892 29.2491 74.1852C29.1353 74.3812 29.2302 74.5586 29.344 74.7219C30.0174 75.6881 30.8757 76.4582 31.9664 76.9296C32.9338 77.3497 33.9202 77.6904 34.992 77.7931C35.5753 77.8491 36.1443 78.2225 36.813 77.7698H36.8177ZM65.4797 9.56463C66.0298 10.1807 66.2384 10.9322 66.7506 11.4596C68.1922 12.9438 69.8662 14.064 71.967 14.4421C72.0998 14.4654 72.2563 14.5588 72.3512 14.4234C72.4602 14.2741 72.3369 14.1294 72.2468 14.0034C71.4833 12.9298 70.7388 11.8377 69.7287 10.9555C69.2498 10.5355 68.7234 10.2321 68.1496 9.96136C67.3244 9.5693 66.4613 9.5833 65.4797 9.56463ZM14.7664 32.463C14.7806 33.3872 14.7237 34.12 14.9798 34.8341C15.0984 35.1748 15.179 35.2122 15.4967 35.0348C16.1986 34.6381 16.4262 33.9099 16.8103 33.2892C17.7398 31.7909 17.7967 30.1993 17.3272 28.5424C17.2229 28.183 17.0664 28.085 16.7486 28.2764C16.3266 28.5284 15.914 28.8038 15.6817 29.2472C15.1173 30.3114 14.5245 31.3755 14.7711 32.4584L14.7664 32.463ZM22.3777 67.9402C22.7286 69.191 23.1222 70.3019 24.3599 71.0673C25.5739 71.8188 26.8496 72.3509 28.1869 72.799C28.3244 72.8456 28.4667 73.0043 28.6137 72.855C28.7654 72.7009 28.7465 72.5049 28.6469 72.3182C27.9023 70.932 26.9966 69.6951 25.498 69.0043C24.5259 68.5563 23.5774 68.0428 22.3777 67.9402ZM84.1403 26.1433C84.3727 25.0092 82.9263 22.4374 82.0063 21.6719C81.5985 21.3312 81.0199 20.9252 80.5599 21.0932C80.2849 21.1959 80.3703 21.9707 80.394 22.4514C80.394 22.5074 80.4035 22.5681 80.4129 22.6241C80.6311 24.351 81.4942 25.7093 82.8552 26.7828C83.1824 27.0395 83.5286 27.5436 83.908 27.3802C84.2731 27.2262 84.0692 26.6428 84.1356 26.1433H84.1403ZM15.4635 49.3965C15.3829 47.5902 14.8802 45.9799 13.32 44.8457C13.0639 44.659 12.879 44.477 12.7699 44.9577C12.5233 46.0359 12.0159 47.1001 12.6988 48.1969C12.7889 48.337 12.7889 48.533 12.8363 48.6964C13.1398 49.7372 13.6994 50.6147 14.5483 51.3101C14.8423 51.5528 15.0367 51.4875 15.1695 51.1468C15.3829 50.5773 15.4872 49.9939 15.4588 49.3918L15.4635 49.3965ZM78.9523 20.127C78.9381 20.0617 78.9334 20.0243 78.9239 19.987C78.4497 17.4292 77.0792 15.5996 74.5231 14.7315C74.3334 14.6661 74.1105 14.4748 73.9256 14.6568C73.7596 14.8202 73.8876 15.0582 73.9256 15.2636C74.1722 16.7105 74.9973 17.798 76.0738 18.7501C76.7994 19.3896 77.5961 19.8983 78.4497 20.3464C78.7437 20.5004 78.9381 20.4911 78.9476 20.127H78.9523ZM87.6875 32.309C87.7112 31.0441 87.2702 29.952 86.3834 29.0511C86.0846 28.7478 85.8617 28.0617 85.4397 28.2343C84.9987 28.4164 84.918 29.0838 84.8374 29.6019C84.8279 29.6579 84.8374 29.7186 84.8232 29.7746C84.5671 30.7874 84.8848 31.7162 85.2642 32.6311C85.6246 33.4945 86.1795 34.2413 86.8292 34.9181C87.1753 35.2822 87.3698 35.1188 87.4504 34.7174C87.6116 33.9193 87.6401 33.1071 87.6828 32.2997L87.6875 32.309ZM83.6993 66.0919C82.6797 66.0405 81.8451 66.5399 80.9915 66.9787C80.7164 67.1187 80.5789 67.3381 80.6169 67.6928C80.7212 68.6263 80.503 69.4571 79.6921 70.0545C79.5878 70.1339 79.4313 70.2132 79.5072 70.3766C79.5973 70.5679 79.7917 70.4886 79.9245 70.4466C80.7259 70.1852 81.5226 69.9332 82.2909 69.5784C83.2867 69.1164 84.0692 68.4582 84.5719 67.4874C84.7758 67.0954 85.1694 66.6099 84.956 66.2739C84.7473 65.9378 84.1261 66.1432 83.6945 66.0965L83.6993 66.0919ZM83.1065 22.2974C83.1065 21.9006 83.1065 21.5553 83.1065 21.2099C83.0781 19.2029 81.6222 17.2239 79.9672 16.3417C79.7822 16.2437 79.6447 16.2204 79.5783 16.4771C79.2985 17.5366 79.1183 18.5914 79.5736 19.6556C79.6779 19.8983 79.8154 20.0103 80.0667 20.085C81.3329 20.4584 82.4663 21.0232 83.1065 22.2974ZM19.115 22.2694C19.8975 21.0885 21.0072 20.4117 22.335 20.057C22.61 19.9823 22.7523 19.819 22.8471 19.5576C23.2265 18.5354 23.07 17.5413 22.7286 16.5518C22.61 16.211 22.4061 16.197 22.1548 16.4257C21.7801 16.7665 21.415 17.1212 21.0404 17.4573C20.2105 18.1947 19.7078 19.0815 19.5418 20.1924C19.4375 20.8831 19.5798 21.6346 19.115 22.2694ZM14.4013 27.6556C14.3396 28.1457 14.6004 28.5144 14.8186 28.9065C14.9798 29.1958 15.0699 29.1538 15.2691 28.9251C15.7907 28.3277 16.355 27.7629 17.0711 27.3802C17.5501 27.1235 17.7113 26.7408 17.6354 26.2227C17.5359 25.5272 17.313 24.8738 17.0142 24.239C16.6396 23.4456 16.6301 23.4502 16.0421 24.085C16.0136 24.113 15.9899 24.141 15.9567 24.1643C14.7664 25.0418 14.6431 26.372 14.4013 27.6509V27.6556ZM92.6289 42.6054C92.6099 41.9379 92.5151 41.4245 92.2732 40.9484C92.1879 40.7757 92.0883 40.561 91.8369 40.6637C90.6988 41.1305 89.8357 41.8679 89.4801 43.0768C89.4374 43.2168 89.4658 43.3381 89.5464 43.4595C90.0728 44.2576 90.5376 45.0791 90.6609 46.0499C90.6704 46.1339 90.7415 46.26 90.8079 46.2833C90.9407 46.3253 91.0023 46.1946 91.0687 46.0966C91.6757 45.1911 92.2116 44.2483 92.5246 43.2028C92.5957 42.9647 92.6052 42.7127 92.6242 42.6007L92.6289 42.6054ZM9.79656 42.3066C9.74913 43.8329 10.47 44.9437 11.352 45.9846C11.6176 46.302 11.8167 46.1759 11.831 45.8399C11.8642 45.0231 12.2673 44.3696 12.7367 43.7442C12.9217 43.4968 12.9122 43.2821 12.8079 42.9974C12.4095 41.9286 11.6081 41.2145 10.7071 40.5704C10.432 40.3743 10.3182 40.5237 10.2091 40.7291C9.92934 41.2518 9.78233 41.8072 9.79656 42.3066ZM12.0349 37.9146C12.0965 37.9053 12.125 37.9146 12.1345 37.9006C12.1724 37.8586 12.2198 37.8166 12.2341 37.7652C12.5376 36.6404 13.1161 35.7302 14.24 35.2308C14.4676 35.1281 14.3159 34.9228 14.2685 34.7687C14.0029 33.8866 13.5524 33.0931 13.026 32.3417C12.6609 31.8189 12.2198 31.7769 11.9021 32.3137C11.3805 33.2052 10.9869 34.1806 11.1908 35.2355C11.371 36.155 11.8499 36.9951 12.0301 37.9146H12.0349ZM90.3052 37.7746C90.8316 36.7991 91.2347 35.8609 91.2489 34.8994C91.2679 33.9053 90.898 32.9298 90.3669 32.0476C90.1819 31.7443 90.0539 31.7069 89.7456 31.9496C88.8114 32.6871 88.598 33.8166 88.0764 34.7781C87.972 34.9694 88.1143 35.1095 88.2661 35.2122C89.1955 35.8283 89.978 36.5657 90.3005 37.7746H90.3052ZM10.2945 50.834C10.6027 51.8795 11.0627 52.9671 12.0539 53.7652C12.3099 53.9752 12.5945 54.1526 12.7842 54.4326C12.8648 54.5493 12.879 54.7827 13.0924 54.7033C13.2916 54.6333 13.2679 54.4233 13.2631 54.2506C13.2299 53.4618 13.3153 52.701 13.7753 52.0289C13.9507 51.7722 13.8464 51.5855 13.6852 51.3521C12.9928 50.3626 11.8594 50.0032 10.8825 49.4198C10.6359 49.2751 10.4273 49.3031 10.4036 49.6625C10.3798 50.0079 10.3372 50.3533 10.2897 50.834H10.2945ZM89.6081 58.3253C89.6555 57.9939 89.5654 57.8165 89.1908 57.9379C88.1807 58.2552 87.1896 58.6333 86.2553 59.1327C85.8191 59.3661 85.6341 59.7488 85.7195 60.2529C85.8285 60.9437 86.0799 61.6391 85.6483 62.3206C85.5725 62.4373 85.5108 62.6426 85.6578 62.75C85.8048 62.862 85.9566 62.7126 86.0894 62.6473C87.1421 62.1572 87.9531 61.3638 88.6597 60.4863C89.1623 59.8655 89.39 59.086 89.6034 58.3253H89.6081ZM92.0314 50.2973C92.0314 50.0639 92.0456 49.8305 92.0266 49.6018C92.0077 49.4151 91.9128 49.2331 91.6805 49.3498C90.6419 49.8772 89.5038 50.2553 88.7972 51.2774C88.5269 51.6695 88.4463 51.9729 88.8114 52.3369C89.039 52.561 89.1054 52.8737 89.1197 53.1911C89.1386 53.5972 89.1813 53.9986 89.2097 54.4046C89.2335 54.736 89.3757 54.7827 89.6034 54.5493C90.0112 54.1339 90.4475 53.7372 90.8079 53.2844C91.5002 52.407 91.984 51.4315 92.0314 50.2926V50.2973ZM25.0428 72.9903C24.8246 72.9903 24.5259 72.9623 24.2366 72.9997C23.9616 73.0323 23.549 72.8596 23.4447 73.1817C23.364 73.4244 23.7956 73.4711 23.971 73.6484C25.0475 74.7313 26.2521 75.6274 27.798 75.9775C27.8739 75.9961 27.945 76.0335 28.0067 76.0802C28.3955 76.3509 28.8461 76.2109 29.2634 76.2435C29.5479 76.2669 29.5194 76.0522 29.3677 75.8981C28.7654 75.3007 28.4904 74.5399 28.2628 73.7558C28.1916 73.5177 28.0588 73.4197 27.836 73.345C26.9539 73.0463 26.0481 72.9203 25.0428 72.9903ZM72.759 76.2108C73.8165 76.4116 74.6891 75.9215 75.6138 75.6321C76.9701 75.2074 77.7763 74.1245 78.7532 73.2424C78.9097 73.1023 78.9002 72.9156 78.6536 72.9483C77.4443 73.0977 76.2208 72.8083 75.0116 73.135C74.4852 73.275 74.1722 73.5131 74.0868 74.0312C73.954 74.8433 73.6173 75.5387 72.8965 76.0148C72.8396 76.0522 72.8159 76.1315 72.7637 76.2108H72.759ZM26.0908 15.0115C26.2995 14.8762 26.5176 14.7455 26.7215 14.6055C27.4092 14.1247 28.2296 13.8913 29.012 13.7513C29.5194 13.6626 29.8324 13.5273 29.9794 13.1119C30.2735 12.2951 30.4869 11.4549 30.4157 10.5635C30.3873 10.1761 30.2213 10.1481 29.9273 10.2601C28.59 10.7735 27.651 11.7817 26.7405 12.7992C26.2046 13.3966 26.2521 14.2367 26.0908 15.0162V15.0115ZM71.9623 10.5961C71.9101 11.4036 72.0666 12.2531 72.4365 13.0605C72.5503 13.3079 72.6642 13.5646 72.9582 13.6486C74.0109 13.9473 75.1016 14.106 76.0501 14.7081C76.3536 14.8995 76.4911 14.6988 76.4247 14.3954C76.3868 14.2274 76.2919 14.0734 76.2256 13.9147C75.7371 12.7572 74.8361 11.917 73.954 11.0582C73.4656 10.5868 72.8918 10.3534 72.2326 10.2507C71.9623 10.2087 71.8485 10.2321 71.9576 10.5961H71.9623ZM87.9673 27.6416C87.8061 26.1713 87.3413 24.8411 86.1131 23.8656C85.9566 23.7396 85.7811 23.5109 85.6151 23.8563C85.1883 24.7291 84.79 25.6066 84.8042 26.6101C84.8042 26.9648 84.9133 27.2122 85.2642 27.3242C85.7669 27.4829 86.1368 27.8283 86.4972 28.1877C86.758 28.4444 87.0473 28.6824 87.3318 28.9205C87.5358 29.0885 87.678 29.0231 87.7823 28.7898C87.9483 28.421 87.9294 28.0336 87.9673 27.6369V27.6416ZM22.3729 70.1805C21.9603 69.3031 21.5999 68.4582 21.6758 67.4921C21.6948 67.2541 21.4814 67.1327 21.3012 67.0113C20.2911 66.3346 19.1767 66.0545 17.9532 66.1199C17.3367 66.1525 17.2418 66.2646 17.5596 66.7826C17.9769 67.4688 18.5981 67.9915 19.1577 68.5609C20.035 69.4477 21.2253 69.7511 22.3729 70.1805ZM12.879 57.8165C13.0924 58.946 13.3058 60.0009 14.112 60.8643C14.8707 61.6765 15.7054 62.3346 16.8577 62.834C16.5779 61.9705 16.4262 61.2377 16.6064 60.4816C16.7913 59.7162 16.6917 59.4688 16.0041 59.0954C15.0225 58.5726 14.0076 58.1339 12.879 57.8165ZM40.7775 76.1548C41.2707 76.5096 41.503 77.0323 41.7686 77.5457C41.8729 77.7464 42.0531 77.9145 42.2144 78.0825C42.3092 78.1805 42.4325 78.2645 42.5795 78.1665C42.7597 78.0405 42.7692 76.925 42.57 76.8363C42.0057 76.5796 41.5173 76.1408 40.7822 76.1595L40.7775 76.1548Z" fill="white"/>
<path d="M64.816 68.7665C62.241 68.7665 59.7608 68.1504 57.2759 67.581C56.1519 67.3196 55.0091 67.1003 53.8615 66.9696C52.4957 66.8155 51.1347 66.5635 49.75 66.6288C48.2182 66.7035 46.7197 66.9649 45.2496 67.4176C43.5614 67.9404 41.949 68.6825 40.2228 69.0886C38.6437 69.462 37.0266 69.4853 35.4142 69.3546C34.5369 69.2846 33.6643 69.2379 32.787 69.0886C31.3312 68.8365 30.2879 68.0197 29.2968 67.0676C28.9743 66.7595 28.6708 66.4235 28.3673 66.0968C28.2535 65.9754 28.0116 65.8681 28.097 65.6954C28.1918 65.4947 28.4526 65.5833 28.6329 65.616C29.5196 65.7794 30.4112 65.9241 31.2838 66.1481C32.6116 66.4842 33.9062 66.9509 35.272 67.1516C37.368 67.4643 39.355 67.1049 41.214 66.1434C43.2626 65.0839 45.4488 64.5192 47.7203 64.1924C50.1957 63.8377 52.6712 63.9031 55.1276 64.2344C56.8538 64.4678 58.5515 64.9439 60.1971 65.5227C62.3168 66.2648 64.4508 66.3255 66.6417 65.9194C68.8895 65.504 71.0852 64.8272 73.3757 64.6125C73.7219 64.5798 74.0491 64.4165 74.3905 64.3185C74.4996 64.2858 74.6324 64.2204 74.713 64.3371C74.7889 64.4492 74.6845 64.5565 74.6182 64.6499C74.5518 64.7479 74.4664 64.8272 74.3905 64.9159C72.0621 67.469 71.18 67.9451 67.5665 68.5798C67.1017 68.6592 66.637 68.7292 66.1675 68.7572C65.717 68.7852 65.2617 68.7619 64.8112 68.7619L64.816 68.7665Z" fill="white"/>
<path d="M31.4965 54.5404C30.0027 54.3537 28.5326 54.069 27.238 53.2289C26.4508 52.7201 25.6256 52.2347 25.066 51.4739C24.1745 50.2557 23.4869 48.9488 24.0133 47.3806C25.2415 43.7073 26.4982 40.0434 27.9019 36.4308C28.8551 33.9804 29.7703 31.5113 30.5338 28.9956C30.6903 28.4822 30.9986 28.0201 30.9796 27.4507C30.9701 27.236 31.1456 27.2173 31.3163 27.25C31.4538 27.2733 31.6056 27.3013 31.5676 27.4927C31.4491 28.0668 31.8142 28.5288 31.9897 29.0189C33.2084 32.4681 34.5932 35.8567 35.7028 39.3433C36.1391 40.7202 36.7224 42.0644 37.1777 43.4413C37.6851 44.9675 38.2115 46.4844 38.7236 48.006C38.8517 48.3887 38.7853 48.7575 38.6715 49.1402C38.3585 50.1904 37.8511 51.1612 37.2109 52.0247C36.3146 53.2289 35.0342 53.9663 33.5451 54.2744C32.8765 54.4097 32.2031 54.6011 31.4965 54.5404ZM33.3317 48.132C34.5884 48.132 35.8498 48.1414 37.1065 48.1227C37.3057 48.1227 37.7088 48.146 37.5476 47.7913C37.2393 47.1099 37.2014 46.3631 36.9406 45.6723C36.1154 43.5019 35.295 41.3269 34.5031 39.1472C33.4882 36.3468 32.6488 33.4856 31.4538 30.7505C31.3969 30.6152 31.4159 30.3958 31.2357 30.3771C31.0128 30.3538 30.9748 30.5825 30.9132 30.7365C30.6808 31.3106 30.4105 31.8754 30.2445 32.4681C29.7182 34.3538 28.9547 36.1601 28.3239 38.0084C27.6221 40.0574 26.9202 42.111 26.2042 44.1554C25.7963 45.3222 25.3743 46.4844 24.9238 47.6373C24.7673 48.034 24.9238 48.1367 25.2605 48.1554C25.8675 48.1834 26.4792 48.2254 27.0862 48.202C29.1681 48.1274 31.2499 48.0574 33.3317 48.132Z" fill="white"/>
<path d="M71.4306 54.4517C69.1022 54.5964 67.1579 53.6022 65.5408 52.1693C64.3932 51.1518 63.5111 49.7469 63.7672 48.0526C63.9427 46.8671 64.2794 45.7049 64.7394 44.5941C65.408 42.9605 65.9249 41.2802 66.4987 39.6186C67.2338 37.4949 68.0589 35.4086 68.8651 33.3082C69.4294 31.8473 69.9179 30.3584 70.4253 28.8742C70.5296 28.5755 70.4348 28.2301 70.7288 27.9687C71.1271 27.614 71.2836 27.6093 71.4875 28.1181C71.7958 28.8928 72.1088 29.6676 72.3316 30.4704C72.7442 31.9453 73.4081 33.3316 73.9061 34.7785C74.8545 37.5463 75.8693 40.286 76.7893 43.0632C77.2683 44.5101 77.8231 45.9383 78.2831 47.3945C78.6815 48.6547 78.3306 49.7796 77.7141 50.8624C77.4248 51.3665 77.1213 51.8706 76.7467 52.314C75.3667 53.9523 73.4745 54.405 71.4354 54.4517H71.4306ZM71.1082 30.1017C70.9422 30.4658 70.8426 30.6525 70.7715 30.8485C70.0601 32.8788 69.3109 34.8952 68.6612 36.9442C67.8929 39.3666 66.8164 41.6723 66.0055 44.0807C65.6262 45.2148 65.2515 46.3584 64.7915 47.4645C64.5307 48.0946 64.5212 48.104 65.2468 48.1273C66.5651 48.174 67.8834 48.1133 69.197 48.0946C71.6962 48.062 74.1953 48.1133 76.6897 48.132C77.3062 48.132 77.4106 48.0106 77.2778 47.4085C77.0739 46.4704 76.7799 45.5602 76.3199 44.7061C76.1918 44.4681 76.0685 44.2207 75.9974 43.9593C75.3761 41.6396 74.3044 39.4599 73.7021 37.1402C73.3654 35.838 72.7442 34.6525 72.3554 33.3736C72.0329 32.3094 71.5587 31.2872 71.0939 30.097L71.1082 30.1017Z" fill="white"/>
<path d="M51.2194 20.8601C51.5372 21.803 51.8928 22.7458 51.9782 23.7399C52.0304 24.3234 52.22 24.8695 52.2722 25.4436C52.3054 25.7796 52.552 25.8683 52.8223 25.8029C53.2017 25.7096 53.5668 25.7703 53.932 25.8496C54.9753 26.069 56.0328 26.1483 57.0998 26.1017C57.7779 26.0737 58.4181 26.307 59.0868 26.3677C59.1864 26.377 59.2812 26.419 59.376 26.4097C61.2303 26.2884 63.0513 26.7971 64.9007 26.6711C65.3418 26.6431 65.7496 26.8111 66.1764 26.8718C66.8782 26.9698 67.5848 27.0631 68.2914 26.9838C69.2636 26.8718 70.1931 27.3152 71.1652 27.1658C71.2553 27.1518 71.3881 27.1472 71.3928 27.2778C71.3976 27.4645 71.2411 27.4926 71.1036 27.4739C70.3685 27.3992 69.6572 27.5812 68.9364 27.6559C65.8349 27.9826 62.7383 28.356 59.6321 28.6407C57.8491 28.8041 56.0802 29.0141 54.3066 29.2475C54.1881 29.2615 54.0695 29.2942 53.9557 29.2802C52.9883 29.1448 52.1774 29.3922 51.5514 30.1623C51.3475 30.4144 51.0819 30.4097 50.8353 30.167C50.712 30.0456 50.565 29.9383 50.437 29.8216C49.9438 29.3549 49.3889 29.1448 48.6776 29.2055C47.5727 29.3035 46.4914 29.0048 45.396 28.9114C43.6983 28.7668 42.0006 28.5661 40.3076 28.3747C38.3206 28.1507 36.3384 27.908 34.3514 27.6933C33.787 27.6326 33.2132 27.6419 32.6442 27.6092C32.3976 27.5952 32.0324 27.6279 32.0372 27.3105C32.0372 27.0305 32.3786 26.9885 32.6489 27.0071C34.9394 27.1472 37.2014 26.7784 39.4682 26.5871C40.7818 26.4751 42.0954 26.4844 43.4043 26.3537C45.3201 26.1577 47.2407 25.985 49.1566 25.8309C50.0149 25.7609 50.0291 25.7889 50.1098 24.9535C50.2378 23.6186 50.6883 22.363 51.0203 21.0748C51.0392 21.0002 51.0487 20.8788 51.2242 20.8555L51.2194 20.8601ZM51.0582 22.083C50.8401 22.8765 51.0677 23.5859 50.7784 24.286C50.5128 24.9255 50.5223 25.6863 50.4891 26.3957C50.4417 27.3385 50.3848 28.2907 50.7926 29.1915C50.8922 29.4062 50.9823 29.6489 51.2574 29.6582C51.4518 29.6629 51.5798 29.4762 51.5941 29.3035C51.6415 28.6454 51.9497 28.0433 51.964 27.3712C51.9829 26.377 51.7079 25.4249 51.5988 24.4494C51.5134 23.6933 51.5229 22.8998 51.0629 22.083H51.0582Z" fill="white"/>
<path d="M42.2236 9.17744C43.6084 13.1168 46.3446 15.2171 50.6268 14.923C54.0507 14.6897 56.4029 12.6873 57.3561 9.59751C58.5701 5.66287 57.2565 2.405 53.4911 0.22998C55.8765 0.407343 59.8742 3.59053 60.263 7.84722C60.742 13.0981 56.8202 17.6068 52.1823 17.7842C46.7951 17.9942 42.4228 14.797 42.2236 9.17277V9.17744Z" fill="white"/>
<path d="M7.84779 66.5213C6.87089 67.1374 5.70431 66.6286 4.7037 67.1187C4.38597 67.2727 3.90701 67.2587 3.69835 66.806C3.37114 66.1012 3.41382 65.9938 3.99711 65.6298C5.33916 64.7896 6.66698 63.9262 8.01377 63.1C8.27933 62.9367 8.6018 62.5073 8.94324 63.0393C9.28468 63.5714 9.20406 63.9075 8.65397 64.2249C8.10861 64.5376 7.568 64.8503 7.03213 65.1724C6.90409 65.2517 6.72388 65.3544 6.77605 65.5224C6.8377 65.7231 7.04161 65.6344 7.18388 65.6204C7.86676 65.5411 8.5449 65.4197 9.22778 65.3637C10.0482 65.2984 10.1999 65.4151 10.3612 66.1012C10.4513 66.4839 10.1003 67.0347 9.58344 67.1934C8.86737 67.4127 8.41686 67.9915 7.82408 68.4069C8.37892 68.3275 8.95273 68.4769 9.46014 68.1735C10.0909 67.8001 10.7073 68.1035 11.3001 68.2762C11.6179 68.3696 11.5609 68.911 11.2242 68.995C10.1335 69.275 9.04757 69.5784 7.89995 69.5784C7.14594 69.5784 6.42987 69.9471 5.65214 69.8818C5.38658 69.8585 5.10679 70.0918 4.94555 69.6484C4.7938 69.233 4.67999 68.8736 5.07359 68.5469C5.67585 68.0428 6.34925 67.6461 7.06532 67.3241C7.41151 67.17 7.6913 66.946 7.85253 66.5213H7.84779Z" fill="white"/>
<path d="M48.4315 77.4291C49.655 77.0884 51.0871 77.1864 52.5098 77.1864C53.8708 77.1864 55.2034 77.3918 56.5075 77.7838C56.6165 77.8165 56.7636 77.8165 56.7493 77.9705C56.7493 78.0219 56.6545 78.1012 56.5928 78.1152C55.5258 78.3953 54.6201 79.0581 53.5626 79.3614C53.0931 79.4968 52.6426 79.6975 52.1731 79.8282C51.6183 79.9822 51.0587 80.2202 50.4706 79.8515C50.3141 79.7535 50.0533 79.8282 49.8399 79.8188C48.2655 79.7488 46.895 79.0767 45.5387 78.3813C45.3633 78.2926 45.1593 78.1666 45.2257 77.9472C45.2826 77.7465 45.5245 77.7932 45.6905 77.7885C46.5583 77.7745 47.3645 77.3498 48.4267 77.4338L48.4315 77.4291Z" fill="white"/>
<path d="M42.3474 96.1267C41.6123 96.0381 40.6781 95.9167 39.7439 95.8094C39.4499 95.7767 39.2981 95.6553 39.3977 95.3519C39.8767 93.8537 40.147 92.3088 40.4505 90.7779C40.5595 90.2411 40.7777 90.0918 41.3467 90.2551C42.096 90.4698 42.888 90.5445 43.6562 90.7079C44.5999 90.9086 45.2591 92.2294 44.6046 92.8969C44.1352 93.3823 44.2822 93.611 44.4007 94.0871C44.5335 94.6005 44.6568 95.1933 44.1494 95.6693C43.6847 96.1034 43.1156 96.0894 42.3426 96.1314L42.3474 96.1267ZM41.8494 93.6997C41.4179 93.709 41.1665 94.0171 41.0622 94.3998C40.9152 94.9319 41.4416 94.8899 41.7214 95.0252C42.1577 95.2353 42.6224 95.3379 43.0397 94.9739C43.2341 94.8012 43.2579 94.5538 43.1393 94.3298C42.8785 93.8444 42.3948 93.7464 41.8494 93.6997ZM42.4801 91.5853C42.3805 91.5807 42.281 91.5573 42.1861 91.5713C41.9585 91.604 41.6408 91.464 41.5886 91.8514C41.5412 92.2061 41.6692 92.4628 42.0344 92.5515C42.3189 92.6215 42.6082 92.6775 42.8974 92.7008C43.3385 92.7382 43.3812 92.3928 43.4286 92.0894C43.4807 91.7394 43.2816 91.604 42.9449 91.604C42.7884 91.604 42.6319 91.59 42.4754 91.5853H42.4801Z" fill="white"/>
<path d="M28.8415 85.5926C27.7887 87.0582 26.7738 88.4864 25.7448 89.9006C25.5504 90.1667 25.3986 90.5634 24.9196 90.3581C24.4407 90.1574 24.0992 89.8073 24.1846 89.2892C24.3079 88.5424 24.3269 87.791 24.3506 87.0395C24.3553 86.8762 24.4644 86.6521 24.2368 86.5914C24.0708 86.5448 23.9712 86.7408 23.9001 86.8715C23.5871 87.4362 23.0465 87.8283 22.7287 88.3977C22.4869 88.8365 21.9984 88.7058 21.676 88.5144C21.344 88.3184 21.5811 88.015 21.7281 87.7583C22.4679 86.4514 23.4875 85.3359 24.2889 84.071C24.6114 83.5669 25.4223 83.5016 25.8633 83.8937C26.0957 84.1037 26.0625 84.3744 25.9487 84.5938C25.5077 85.4619 25.925 86.4047 25.6642 87.2822C25.6452 87.3476 25.6594 87.4456 25.7543 87.4689C25.8681 87.4969 25.9534 87.4269 25.9961 87.3429C26.347 86.6381 27.0489 86.19 27.4046 85.4899C27.5611 85.1819 27.765 85.0652 28.0448 85.3172C28.2534 85.5039 28.5332 85.4199 28.8367 85.5973L28.8415 85.5926Z" fill="white"/>
<path d="M55.1797 91.1703C55.5354 91.1703 55.8863 91.1703 56.242 91.1703C57.2853 91.161 57.4655 91.2543 57.7548 91.9638C57.9871 92.5332 57.7927 93.378 57.2616 93.8214C56.9438 94.0874 56.8822 94.1901 57.2616 94.4935C57.769 94.8996 57.9824 95.581 58.5277 95.9918C58.689 96.1084 58.6321 96.3465 58.4376 96.4912C58.0867 96.7525 57.0671 96.6172 56.8869 96.2345C56.5692 95.553 55.9195 95.175 55.4643 94.6242C55.3078 94.4375 55.1134 94.3348 54.843 94.4842C54.5585 94.6382 54.5253 94.8716 54.6012 95.1283C54.7103 95.497 54.881 95.8517 54.8573 96.2485C54.8383 96.5378 54.8857 96.8599 54.4684 96.9159C54.0843 96.9672 53.7097 96.9673 53.52 96.5332C53.3777 96.2111 53.2022 95.8797 53.2307 95.539C53.3445 94.2555 52.9888 93.0046 52.9699 91.7304C52.9651 91.2917 53.0789 91.1376 53.5247 91.161C54.0748 91.1936 54.6249 91.1703 55.175 91.1703C55.175 91.1703 55.175 91.1703 55.175 91.175L55.1797 91.1703ZM55.4169 93.2893C55.4595 93.2893 55.6397 93.2893 55.8152 93.266C56.1566 93.2286 56.4175 93.1166 56.4269 92.7059C56.4364 92.2811 56.1804 92.1178 55.8105 92.0804C55.5164 92.0524 55.2224 92.0664 54.9284 92.0618C54.6107 92.0618 54.4874 92.2158 54.4542 92.5239C54.3878 93.224 54.4874 93.3267 55.4169 93.2893Z" fill="white"/>
<path d="M3.20474 53.0652C3.81174 53.1586 4.57998 52.9672 5.27235 53.3592C5.43833 53.4526 5.50946 53.3499 5.59008 53.2192C5.77028 52.9158 6.79934 52.6078 7.12181 52.7571C7.16924 52.7805 7.22614 52.8272 7.24037 52.8785C7.60552 53.9333 7.88057 55.0162 7.5581 56.1084C7.32573 56.8925 6.08801 57.3826 5.22018 57.1399C4.81235 57.0278 4.36658 56.9625 4.20061 56.4631C4.09154 56.127 3.8402 56.1644 3.6837 56.4071C3.28536 57.0325 2.4365 57.0279 2.00022 57.6019C1.92908 57.6953 1.78682 57.6673 1.67775 57.5973C1.28414 57.3406 1.21775 56.5424 1.5829 56.2577C1.7963 56.0897 2.0429 55.9637 2.28475 55.833C2.75897 55.5809 3.17629 55.2542 3.49402 54.8295C3.78329 54.4468 3.69793 54.2881 3.21422 54.2647C2.64516 54.2367 2.07609 54.2181 1.50703 54.1994C1.18456 54.1901 0.971155 54.0687 0.999609 53.7093C1.02806 53.3686 1.05177 53.0372 1.54496 53.0559C2.05712 53.0745 2.56928 53.0559 3.20474 53.0559V53.0652ZM6.44368 54.9835C6.401 53.9333 6.37254 53.9287 5.51894 53.938C4.9641 53.9473 4.93091 54.2787 4.94988 54.6755C4.98307 55.4689 5.26761 55.903 5.73709 55.875C6.41048 55.833 6.48161 55.749 6.44842 54.9835H6.44368Z" fill="white"/>
<path d="M98.0775 53.4851C97.2808 53.4851 96.4889 53.4851 95.6922 53.4851C95.346 53.4851 95.0899 53.4104 95.0378 52.9904C94.9524 52.2949 94.9761 52.2669 95.7017 52.2202C96.4747 52.1689 97.2192 52.3696 97.9684 52.4209C98.7794 52.477 99.6093 52.5283 100.43 52.491C100.686 52.4816 101.032 52.3696 101.108 52.757C101.184 53.1257 101.174 53.4945 100.776 53.7232C100.079 54.1199 99.4148 54.5726 98.6561 54.862C98.4284 54.9507 98.068 55.002 98.1629 55.3148C98.2435 55.5808 98.5612 55.4501 98.7889 55.4174C99.4765 55.3194 100.164 55.4174 100.837 55.5014C101.369 55.5621 101.07 56.0662 101.108 56.3696C101.146 56.6776 100.918 56.7056 100.676 56.659C98.8363 56.2856 96.9726 56.3416 95.1136 56.4303C94.9334 56.4396 94.8007 56.4303 94.7864 56.2156C94.758 55.8375 94.6204 55.4221 95.0804 55.1887C95.8155 54.82 96.5553 54.4653 97.2951 54.1059C97.5701 53.9752 97.8878 53.9145 98.0775 53.4898V53.4851Z" fill="white"/>
<path d="M80.4602 81.742C82.2149 81.7373 84.4816 83.7257 83.9268 85.6066C83.6518 86.5308 81.9777 87.8983 80.7922 87.4363C79.6873 87.0069 78.7341 86.5168 78.1318 85.4806C77.539 84.4631 77.6054 83.6556 78.4258 82.7875C78.9664 82.2181 79.5497 81.686 80.4602 81.7373V81.742ZM81.3518 86.2554C82.0916 86.2181 82.3429 85.7046 82.6322 85.2472C82.8693 84.8738 82.618 84.5985 82.3808 84.3184C82.2575 84.1737 82.1674 83.9964 82.0679 83.833C81.7122 83.2402 80.8064 82.8622 80.133 83.0349C79.1656 83.2822 78.8953 83.945 79.4312 84.7852C79.526 84.9345 79.6019 85.0979 79.7205 85.2239C80.1947 85.7186 80.7068 86.1667 81.3518 86.2601V86.2554Z" fill="white"/>
<path d="M33.5791 89.2984C33.617 91.5715 31.6917 93.0184 29.5814 92.463C28.9602 92.2996 28.3674 92.0242 27.7556 91.8142C27.4095 91.6928 27.3573 91.4641 27.4996 91.1747C27.6371 90.8994 27.8078 90.638 27.9596 90.3673C28.4006 89.5738 28.9554 88.841 29.24 87.9636C29.3727 87.5575 29.5766 87.1748 29.8659 86.8574C30.1647 86.5306 30.4777 86.3813 30.9329 86.7173C31.3502 87.0254 31.8434 87.2634 32.3319 87.4501C33.3088 87.8235 33.6312 88.5423 33.5791 89.3078V89.2984ZM32.2987 89.5411C32.3129 88.9344 31.2744 88.0522 30.7717 88.1316C30.6199 88.1549 30.5014 88.2296 30.4729 88.3743C30.3259 89.1351 29.7806 89.7092 29.4771 90.3999C29.1404 91.1607 29.1214 91.1467 29.8707 91.3848C30.0366 91.4361 30.1979 91.5201 30.3449 91.6041C30.4919 91.6882 30.6436 91.7442 30.7859 91.6415C31.5684 91.0907 32.0284 90.3253 32.2939 89.5411H32.2987Z" fill="white"/>
<path d="M97.6414 62.8854C96.6882 62.9228 95.8109 62.7501 94.9953 62.3207C94.2033 61.9006 93.8713 61.2145 93.9994 60.3417C94.2744 58.456 94.6396 58.106 96.5507 57.8679C97.7742 57.7139 98.8175 58.12 99.7754 58.8201C100.074 59.0395 100.15 59.3662 100.207 59.6836C100.382 60.6311 100.477 61.5645 99.6284 62.3067C99.0404 62.8201 98.348 62.9274 97.6367 62.8854H97.6414ZM97.0676 61.5412C97.6319 61.5412 98.0587 61.5645 98.4855 61.4385C98.8791 61.3218 99.2443 61.1538 99.3296 60.7244C99.415 60.295 99.1305 60.0103 98.8175 59.7489C98.2579 59.2868 97.575 59.2075 96.8921 59.1188C96.2187 59.0301 95.7113 59.3008 95.3225 59.8283C95.0379 60.2157 95.0616 60.5517 95.4031 60.9111C95.901 61.4292 96.4748 61.6719 97.0629 61.5412H97.0676Z" fill="white"/>
<path d="M74.7321 85.3033C75.3628 85.1306 75.856 85.3266 76.3302 85.6393C76.7001 85.8867 76.6669 86.1341 76.3634 86.3815C76.0362 86.6428 75.6948 86.8435 75.2348 86.6568C74.9882 86.5542 74.7037 86.5121 74.4334 86.4888C74.1156 86.4561 73.9734 86.6475 73.9639 86.9462C73.9544 87.2683 74.1251 87.4083 74.4381 87.3896C75.0546 87.3523 75.6568 87.1889 76.2686 87.1142C77.3972 86.9742 78.5211 87.7957 78.5449 88.9112C78.5449 89.0979 78.5306 89.3686 78.4121 89.4573C77.8051 89.9007 77.3166 90.4701 76.6005 90.8108C75.562 91.3056 74.9455 90.5681 74.182 90.2368C74.0255 90.1667 73.9686 90.0407 74.0729 89.854C74.3622 89.3406 75.0166 89.1959 75.4672 89.5646C76.0315 90.0267 76.4203 89.938 76.7381 89.2566C76.8566 89.0045 77.1506 88.7198 76.9372 88.4725C76.7618 88.2671 76.4203 88.4491 76.1548 88.4911C75.434 88.6031 74.7084 88.6358 73.9828 88.5985C73.3474 88.5658 72.8589 88.1411 72.693 87.6323C72.5222 87.1002 72.4938 86.4375 73.0107 85.966C73.5086 85.5133 74.0065 85.0512 74.7321 85.2986V85.3033Z" fill="white"/>
<path d="M70.0843 93.4524C69.2117 93.6391 68.7565 93.0697 68.2775 92.5516C68.1163 92.3789 68.2253 92.2482 68.4008 92.1316C68.9082 91.7955 69.3872 91.8888 69.8946 92.1502C70.5917 92.5096 71.1608 92.1829 71.2272 91.4314C71.2604 91.044 71.1134 90.918 70.715 90.946C69.9894 90.9927 69.2592 90.9974 68.5336 90.9927C67.7322 90.988 67.4144 90.7313 67.2342 89.9985C67.0208 89.1491 67.1868 88.533 67.8412 88.2389C68.3866 87.9962 68.9035 87.6508 69.5342 87.6135C70.1791 87.5715 70.7909 87.8982 71.047 88.4303C71.2936 88.939 71.1276 89.2004 70.5395 89.1677C70.0701 89.1397 69.6006 89.0697 69.1358 89.0277C68.7992 88.9997 68.5099 89.0931 68.5526 89.4851C68.6 89.8865 68.9225 89.6905 69.1548 89.6998C69.8804 89.7232 70.6059 89.7325 71.3268 89.8118C71.9385 89.8818 72.9249 90.9414 72.7826 91.5295C72.683 91.9449 72.6546 92.5236 72.095 92.8083C71.4453 93.135 70.8573 93.5785 70.089 93.4478L70.0843 93.4524Z" fill="white"/>
<path d="M8.38775 75.3197C8.36878 75.105 8.56795 74.9043 8.80032 74.7036C9.12754 74.4189 9.44052 74.1108 8.84774 73.7701C8.7861 73.7328 8.71496 73.6581 8.70074 73.5927C8.5395 72.6966 7.87559 72.7246 7.18323 72.7573C6.93663 72.7666 6.64261 72.8413 6.45767 72.6219C6.26324 72.3979 6.13994 72.1132 6.23478 71.8144C6.32488 71.5391 6.60467 71.5717 6.8323 71.5531C8.63434 71.413 10.3984 71.035 12.1768 70.7736C12.5846 70.7129 12.9308 70.7736 13.1157 71.1703C13.2865 71.5391 13.4145 71.8611 13.0162 72.2578C11.7974 73.462 10.6213 74.7129 9.34568 75.8611C9.16547 76.0198 9.03743 76.3745 8.75764 76.2438C8.46837 76.1085 8.39723 75.7584 8.38301 75.3243L8.38775 75.3197ZM10.1945 73.0326C10.5502 73.056 10.8395 72.8973 10.849 72.6266C10.8679 72.2018 10.4411 72.3092 10.1851 72.2858C9.9432 72.2672 9.53537 72.1085 9.51166 72.4865C9.48794 72.8693 9.91949 72.9346 10.1898 73.0326H10.1945Z" fill="white"/>
<path d="M2.61668 63.1984C2.58823 62.9697 2.75895 62.713 3.1241 62.531C3.59832 62.2976 3.96347 61.9896 3.52245 61.4108C3.45131 61.3128 3.45606 61.1494 3.45131 61.0187C3.43234 60.58 3.22369 60.384 2.76369 60.3233C1.95751 60.216 1.55443 59.8146 1.57814 59.2778C1.59236 58.9464 1.74886 58.8204 2.01916 59.0118C2.32741 59.2311 2.64514 59.1985 2.97709 59.1704C3.50822 59.1191 4.02038 59.0911 4.5278 59.3385C4.77913 59.4598 5.11583 59.4878 5.39562 59.4412C6.27768 59.2871 7.0886 59.7119 7.94694 59.7165C8.28363 59.7165 8.35477 60.0526 8.40219 60.314C8.4591 60.6314 8.53497 60.9721 8.15085 61.1868C7.01272 61.8262 5.87933 62.4843 4.73645 63.1238C4.32862 63.3525 3.8876 63.5345 3.5177 63.8285C3.32802 63.9779 3.13358 64.1086 2.87276 63.9779C2.61194 63.8472 2.63565 63.6045 2.61668 63.2078V63.1984ZM5.9552 61.0608C5.64222 60.776 5.36243 60.3886 4.88821 60.58C4.67955 60.664 4.63687 60.9674 4.76017 61.1448C5.16325 61.7329 5.53315 60.9627 5.95995 61.0654L5.9552 61.0608Z" fill="white"/>
<path d="M94.497 73.2848C94.1651 73.2008 93.9185 73.3548 93.6909 73.5509C93.302 73.8776 93.1265 74.3396 92.8942 74.7597C92.714 75.0911 92.9938 75.3011 93.2498 75.4505C93.4585 75.5718 93.6814 75.6652 93.6102 75.9686C93.5344 76.2766 93.4158 76.5707 93.1265 76.734C92.9179 76.8507 92.7519 76.7014 92.6191 76.552C91.6896 75.5018 90.6037 74.5964 89.7501 73.4715C89.5983 73.2708 89.4039 73.0981 89.2095 72.9441C88.7684 72.5987 88.702 72.2113 88.9534 71.7165C89.1952 71.2311 89.5651 71.3618 89.9635 71.4178C91.3814 71.6232 92.7993 71.8426 94.222 71.9873C94.7673 72.0433 95.2321 72.2953 95.7442 72.4027C95.9624 72.4493 95.9814 72.622 95.8106 72.7341C95.4123 72.9954 95.0282 73.3128 94.5018 73.2801L94.497 73.2848ZM92.2824 73.1915C92.2492 72.8741 91.9884 72.8274 91.7418 72.7994C91.5664 72.7807 91.2723 72.7294 91.3055 73.0048C91.3387 73.2568 91.5426 73.4948 91.8319 73.5509C92.0832 73.5975 92.2208 73.4295 92.2824 73.1868V73.1915Z" fill="white"/>
<path d="M48.9386 91.1793C49.465 91.072 49.6404 91.3287 49.8064 91.7907C50.3043 93.1536 50.8876 94.4885 51.3287 95.8701C51.3476 95.9261 51.3856 95.9774 51.3903 96.0334C51.4188 96.3368 51.8266 96.7149 51.3476 96.9249C50.8402 97.1489 50.1668 96.8456 50.0625 96.3881C49.9155 95.7347 49.4744 95.604 48.8912 95.5854C48.2889 95.5667 47.6866 95.478 47.4163 96.2108C47.3215 96.4675 47.1697 96.7009 46.9042 96.8269C46.6244 96.9576 46.3066 96.9856 46.0553 96.8269C45.7708 96.6402 45.9699 96.3555 46.0648 96.1501C46.6196 94.9319 47.0464 93.6624 47.7246 92.5002C47.8384 92.3041 47.8858 92.0661 47.9617 91.8467C48.1229 91.3847 48.3553 91.0299 48.9338 91.184L48.9386 91.1793ZM48.4027 94.1665C48.3648 94.4885 48.3885 94.7406 48.7536 94.7452C49.0429 94.7452 49.3511 94.6705 49.299 94.3018C49.2421 93.9237 49.299 93.3263 48.82 93.3123C48.3932 93.2983 48.5023 93.8817 48.4074 94.1665H48.4027Z" fill="white"/>
<path d="M62.008 93.644C61.9511 92.5891 62.2593 91.567 62.2973 90.5261C62.3068 90.1807 62.3305 89.8167 62.781 89.7933C63.2694 89.7653 63.8527 89.5786 64.1562 90.1527C64.6921 91.1562 65.4603 91.9777 66.2381 92.7945C66.6364 93.2099 66.8546 93.7373 67.2292 94.162C67.3477 94.2974 67.3383 94.4561 67.1912 94.5728C66.9778 94.7408 66.755 94.9322 66.4515 94.7921C66.3139 94.7268 66.1954 94.6148 66.0721 94.5168C65.8397 94.3301 65.7354 93.9473 65.3513 93.9847C64.7443 94.0407 64.1278 94.05 63.5587 94.2974C63.3406 94.3907 63.3169 94.5961 63.3311 94.7921C63.3738 95.3896 63.0276 95.665 62.5059 95.8283C62.2925 95.8937 62.0602 95.987 61.8894 95.8377C61.714 95.679 62.0033 95.5436 62.008 95.3849C62.0175 94.8062 62.008 94.2274 62.008 93.6533V93.644ZM63.4686 91.3989C63.2125 91.861 63.2173 92.2857 63.222 92.7058C63.222 92.8785 63.3074 93.0139 63.4781 93.0465C63.8148 93.1165 64.0898 92.9672 64.3364 92.7665C64.4218 92.6965 64.4692 92.5891 64.3744 92.5191C63.995 92.2344 63.8575 91.7537 63.4686 91.3989Z" fill="white"/>
<path d="M18.6077 82.6847C17.9438 82.9601 17.5123 82.4374 17.0665 82.008C16.6444 81.5972 16.284 81.5552 15.8809 82.022C15.7197 82.2087 15.4779 82.33 15.2977 82.5027C14.9372 82.8574 14.6669 82.8901 14.2164 82.526C13.8181 82.1993 13.8845 82.1153 14.2022 81.8166C15.4257 80.6684 16.6634 79.5436 17.996 78.5214C18.418 78.1947 18.7452 78.1667 19.1151 78.5587C19.5941 79.0675 20.1442 79.5249 20.5473 80.085C20.903 80.5751 20.7939 81.1912 20.6137 81.7513C20.4192 82.3534 19.8929 82.5307 19.338 82.6381C19.1294 82.6801 18.9065 82.6661 18.603 82.6801L18.6077 82.6847ZM18.6314 81.5226C18.9681 81.4712 19.4044 81.4665 19.4755 80.9625C19.523 80.6264 18.8448 79.8983 18.5176 79.8936C18.2283 79.889 17.6545 80.4304 17.6308 80.7338C17.6071 81.0698 18.143 81.5179 18.6314 81.5226Z" fill="white"/>
<path d="M87.0283 82.9837C86.336 82.9277 85.6863 82.825 85.0508 82.5916C83.8937 82.1715 83.3484 81.2474 83.0306 80.1832C82.7461 79.2171 83.6092 78.0362 84.5956 77.7795C85.1978 77.6208 85.7574 77.6535 86.3454 77.7888C86.5731 77.8402 86.6395 77.9382 86.6157 78.1436C86.5636 78.643 86.0087 79.021 85.5203 78.8577C85.0793 78.7083 84.7473 78.8483 84.4865 79.1844C84.1972 79.5625 84.1545 79.9732 84.4533 80.3653C84.9275 80.9907 85.5156 81.4854 86.2316 81.8495C86.8339 82.1529 87.1374 81.6441 87.5405 81.4434C87.8535 81.2894 87.7159 80.9533 87.6258 80.7106C87.4551 80.2392 87.3935 79.8425 88.0194 79.6698C88.5363 79.5251 88.9157 79.8658 89.1054 80.5239C89.3567 81.4014 88.01 83.2311 87.0188 82.979L87.0283 82.9837Z" fill="white"/>
<path d="M51.8269 6.86229C51.5044 7.02565 51.2436 6.95564 50.997 6.98364C49.9537 7.105 49.5981 7.41771 49.3894 8.42588C49.361 8.55657 49.3562 8.69659 49.3278 8.82728C49.3041 8.93463 49.2898 9.07465 49.1428 9.08865C49.0053 9.09799 48.9389 8.9813 48.8962 8.87395C48.7492 8.51456 48.5738 8.1645 48.4789 7.79111C48.3556 7.28236 48.0521 7.17967 47.5731 7.21235C47.061 7.24969 46.5346 7.29169 45.9561 7.05365C46.3923 6.75027 46.8334 6.59625 47.1843 6.29286C47.5684 5.95681 47.7534 5.62075 47.4973 5.13534C47.4072 4.96731 47.3455 4.77595 47.2981 4.59392C47.2365 4.36988 46.9187 4.12718 47.1653 3.92648C47.3503 3.77712 47.5826 4.0525 47.7913 4.15051C47.9478 4.22053 48.0948 4.32788 48.2371 4.43056C48.8109 4.82262 49.0622 4.81329 49.5601 4.32321C49.8115 4.07583 50.1766 3.98249 50.3758 3.66977C50.4422 3.56708 50.5276 3.40372 50.6935 3.51574C50.8168 3.59976 50.8263 3.77245 50.7552 3.88447C50.5181 4.25786 50.4896 4.69194 50.3426 5.084C50.1909 5.48073 50.3142 5.74211 50.6508 5.97081C51.035 6.23219 51.3906 6.5309 51.8269 6.86229Z" fill="white"/>
<path d="M93.3734 66.1993C93.3639 66.2367 93.3545 66.274 93.345 66.3114C93.1268 67.4782 93.1411 67.4455 94.2839 67.8889C95.2845 68.2763 96.252 68.7524 97.2478 69.1678C97.5987 69.3125 97.4754 69.5085 97.3711 69.7232C97.2194 70.0313 97.115 70.428 96.6171 70.232C96.0528 70.008 95.4979 69.7559 94.9336 69.5272C94.265 69.2565 93.6011 68.9671 92.9182 68.7337C92.1689 68.4817 92.0029 68.5891 91.8275 69.3639C91.7658 69.6299 91.6757 69.8259 91.3627 69.6906C91.0877 69.5692 90.5565 69.5552 90.7652 69.0931C91.2536 68.001 91.5809 66.8294 92.3349 65.8633C92.572 65.5646 92.8802 65.7559 93.1553 65.8026C93.3687 65.8399 93.4351 65.994 93.3734 66.1993Z" fill="white"/>
<path d="M15.5918 75.161C15.5918 75.2917 15.5207 75.3711 15.4116 75.4364C14.2782 76.0899 13.2871 76.9487 12.1774 77.6395C11.8407 77.8495 11.8455 78.0782 12.0684 78.3582C12.4193 78.8016 12.7655 79.2404 13.1117 79.6885C13.491 80.1832 12.903 80.2485 12.7181 80.4679C12.5236 80.6966 12.2486 80.6126 12.1395 80.3652C11.7459 79.4784 10.9824 78.9183 10.3138 78.2696C9.82056 77.7935 9.86799 77.7235 10.3991 77.3127C11.7506 76.2626 13.2824 75.4598 14.5865 74.3396C14.6529 74.2789 14.7572 74.2276 14.8426 74.2322C15.0323 74.2369 15.5966 74.951 15.5918 75.1564V75.161Z" fill="white"/>
<path d="M19.6132 86.6894C19.3097 86.5961 18.9161 86.5634 18.7643 86.1994C18.6315 85.8773 18.9066 85.6859 19.1152 85.4759C20.168 84.4117 21.2066 83.3382 22.3115 82.3254C22.781 81.896 22.9564 81.8867 23.388 82.2787C23.8338 82.6801 23.6915 82.9602 23.3121 83.3196C22.2356 84.3324 21.1876 85.3732 20.1301 86.4094C19.9878 86.5494 19.8598 86.6894 19.6084 86.6941L19.6132 86.6894Z" fill="white"/>
<path d="M37.0262 89.5925C37.0262 89.8819 36.9551 90.1666 36.8128 90.428C36.1821 91.6135 35.7411 92.8737 35.2242 94.1059C35.1578 94.2693 35.1341 94.5633 34.878 94.4933C34.584 94.4093 34.252 94.386 34.0102 94.1619C33.9722 94.1293 33.9912 94.0219 34.0102 93.9519C34.3896 92.3463 35.1246 90.8667 35.7553 89.3545C35.8976 89.0138 36.1252 88.7524 36.5757 88.8784C36.9456 88.9858 37.0594 89.2425 37.031 89.5972L37.0262 89.5925Z" fill="white"/>
<path d="M86.9051 75.0864C87.2561 75.1424 87.4932 75.2825 87.7208 75.4365C88.8542 76.2066 90.0208 76.9254 91.2206 77.5928C91.4055 77.6955 91.5762 77.8355 91.7327 77.9802C91.9651 78.1996 92.0173 78.461 91.7564 78.685C91.5193 78.8904 91.2917 79.2264 90.9028 78.9277C89.8785 78.1296 88.7167 77.5555 87.6022 76.9021C87.0996 76.608 86.6491 76.2253 86.1748 75.8846C86.0658 75.8099 85.9709 75.6932 86.0847 75.6045C86.3503 75.3945 86.5732 75.0864 86.9051 75.0911V75.0864Z" fill="white"/>
<path d="M93.5774 63.5107C93.6675 63.5341 93.8382 63.5621 94.0042 63.6181C95.5265 64.1222 97.0724 64.5376 98.6279 64.925C99.0025 65.0183 99.2491 65.2144 99.0689 65.6298C98.9219 65.9751 98.884 66.3672 98.2438 66.1432C96.6409 65.5924 94.9953 65.1537 93.364 64.6729C93.051 64.5796 92.8187 64.4396 92.8566 64.0755C92.8851 63.7721 93.1743 63.5201 93.5822 63.5107H93.5774Z" fill="white"/>
<rect x="118.987" y="52.5439" width="298.782" height="27.6869" rx="2" fill="white"/>
<path d="M128.487 72.329H127.029L131.246 60.8464H132.681L136.897 72.329H135.439L132.008 62.663H131.918L128.487 72.329ZM129.025 67.8436H134.901V69.0771H129.025V67.8436Z" fill="#0EA5E9"/>
<path d="M148.597 63.7171C148.529 63.1489 148.256 62.7079 147.778 62.3939C147.299 62.0799 146.713 61.9229 146.017 61.9229C145.509 61.9229 145.064 62.0052 144.683 62.1696C144.306 62.3341 144.01 62.5602 143.797 62.848C143.588 63.1358 143.483 63.4629 143.483 63.8292C143.483 64.1357 143.556 64.3992 143.702 64.6198C143.851 64.8365 144.042 65.0178 144.274 65.1636C144.505 65.3056 144.748 65.4234 145.003 65.5168C145.257 65.6065 145.49 65.6794 145.703 65.7355L146.87 66.0495C147.169 66.128 147.501 66.2364 147.868 66.3747C148.238 66.513 148.591 66.7017 148.927 66.9409C149.267 67.1764 149.548 67.4792 149.768 67.8492C149.989 68.2193 150.099 68.6734 150.099 69.2117C150.099 69.8321 149.937 70.3928 149.611 70.8937C149.29 71.3945 148.819 71.7926 148.198 72.0879C147.582 72.3832 146.832 72.5308 145.95 72.5308C145.128 72.5308 144.416 72.3981 143.814 72.1327C143.216 71.8674 142.745 71.4973 142.401 71.0226C142.061 70.5479 141.868 69.9966 141.824 69.3686H143.259C143.296 69.8022 143.442 70.1611 143.696 70.4451C143.954 70.7255 144.279 70.9348 144.672 71.0731C145.068 71.2076 145.494 71.2749 145.95 71.2749C146.481 71.2749 146.957 71.189 147.38 71.017C147.802 70.8413 148.137 70.5984 148.383 70.2881C148.63 69.9742 148.754 69.6079 148.754 69.1892C148.754 68.808 148.647 68.4977 148.434 68.2585C148.221 68.0193 147.941 67.8249 147.593 67.6754C147.245 67.5259 146.87 67.3951 146.466 67.2829L145.053 66.8793C144.156 66.6214 143.446 66.2532 142.923 65.7747C142.399 65.2963 142.138 64.6702 142.138 63.8965C142.138 63.2536 142.311 62.6929 142.659 62.2145C143.01 61.7323 143.481 61.3585 144.072 61.0931C144.666 60.824 145.33 60.6895 146.062 60.6895C146.802 60.6895 147.46 60.8221 148.036 61.0875C148.611 61.3492 149.067 61.708 149.404 62.164C149.744 62.62 149.923 63.1377 149.942 63.7171H148.597Z" fill="#0EA5E9"/>
<path d="M162.296 63.7171C162.229 63.1489 161.956 62.7079 161.478 62.3939C160.999 62.0799 160.412 61.9229 159.717 61.9229C159.209 61.9229 158.764 62.0052 158.383 62.1696C158.005 62.3341 157.71 62.5602 157.497 62.848C157.287 63.1358 157.183 63.4629 157.183 63.8292C157.183 64.1357 157.256 64.3992 157.401 64.6198C157.551 64.8365 157.742 65.0178 157.973 65.1636C158.205 65.3056 158.448 65.4234 158.702 65.5168C158.956 65.6065 159.19 65.6794 159.403 65.7355L160.569 66.0495C160.868 66.128 161.201 66.2364 161.567 66.3747C161.937 66.513 162.291 66.7017 162.627 66.9409C162.967 67.1764 163.247 67.4792 163.468 67.8492C163.688 68.2193 163.799 68.6734 163.799 69.2117C163.799 69.8321 163.636 70.3928 163.311 70.8937C162.989 71.3945 162.519 71.7926 161.898 72.0879C161.281 72.3832 160.532 72.5308 159.65 72.5308C158.827 72.5308 158.115 72.3981 157.514 72.1327C156.916 71.8674 156.445 71.4973 156.101 71.0226C155.761 70.5479 155.568 69.9966 155.523 69.3686H156.959C156.996 69.8022 157.142 70.1611 157.396 70.4451C157.654 70.7255 157.979 70.9348 158.371 71.0731C158.768 71.2076 159.194 71.2749 159.65 71.2749C160.181 71.2749 160.657 71.189 161.079 71.017C161.502 70.8413 161.836 70.5984 162.083 70.2881C162.33 69.9742 162.453 69.6079 162.453 69.1892C162.453 68.808 162.347 68.4977 162.134 68.2585C161.92 68.0193 161.64 67.8249 161.293 67.6754C160.945 67.5259 160.569 67.3951 160.166 67.2829L158.753 66.8793C157.856 66.6214 157.145 66.2532 156.622 65.7747C156.099 65.2963 155.837 64.6702 155.837 63.8965C155.837 63.2536 156.011 62.6929 156.359 62.2145C156.71 61.7323 157.181 61.3585 157.771 61.0931C158.366 60.824 159.029 60.6895 159.762 60.6895C160.502 60.6895 161.16 60.8221 161.735 61.0875C162.311 61.3492 162.767 61.708 163.103 62.164C163.444 62.62 163.623 63.1377 163.642 63.7171H162.296Z" fill="#0EA5E9"/>
<path d="M179.405 66.5877C179.405 67.7988 179.186 68.8453 178.749 69.7275C178.311 70.6096 177.711 71.2899 176.949 71.7683C176.186 72.2468 175.315 72.486 174.336 72.486C173.357 72.486 172.486 72.2468 171.723 71.7683C170.961 71.2899 170.361 70.6096 169.924 69.7275C169.486 68.8453 169.268 67.7988 169.268 66.5877C169.268 65.3767 169.486 64.3301 169.924 63.448C170.361 62.5658 170.961 61.8856 171.723 61.4071C172.486 60.9287 173.357 60.6895 174.336 60.6895C175.315 60.6895 176.186 60.9287 176.949 61.4071C177.711 61.8856 178.311 62.5658 178.749 63.448C179.186 64.3301 179.405 65.3767 179.405 66.5877ZM178.059 66.5877C178.059 65.5935 177.893 64.7543 177.56 64.0703C177.231 63.3863 176.784 62.8686 176.22 62.5172C175.659 62.1659 175.031 61.9902 174.336 61.9902C173.641 61.9902 173.011 62.1659 172.447 62.5172C171.886 62.8686 171.439 63.3863 171.107 64.0703C170.778 64.7543 170.613 65.5935 170.613 66.5877C170.613 67.582 170.778 68.4211 171.107 69.1051C171.439 69.7891 171.886 70.3068 172.447 70.6582C173.011 71.0095 173.641 71.1852 174.336 71.1852C175.031 71.1852 175.659 71.0095 176.22 70.6582C176.784 70.3068 177.231 69.7891 177.56 69.1051C177.893 68.4211 178.059 67.582 178.059 66.5877Z" fill="#0EA5E9"/>
<path d="M194.614 64.4347H193.223C193.141 64.0348 192.997 63.6834 192.792 63.3807C192.59 63.0779 192.343 62.8237 192.052 62.6182C191.764 62.4088 191.444 62.2519 191.093 62.1472C190.741 62.0425 190.375 61.9902 189.994 61.9902C189.299 61.9902 188.669 62.1659 188.104 62.5172C187.544 62.8686 187.097 63.3863 186.764 64.0703C186.435 64.7543 186.271 65.5935 186.271 66.5877C186.271 67.582 186.435 68.4211 186.764 69.1051C187.097 69.7891 187.544 70.3068 188.104 70.6582C188.669 71.0095 189.299 71.1852 189.994 71.1852C190.375 71.1852 190.741 71.1329 191.093 71.0282C191.444 70.9236 191.764 70.7684 192.052 70.5629C192.343 70.3536 192.59 70.0975 192.792 69.7947C192.997 69.4882 193.141 69.1369 193.223 68.7407H194.614C194.509 69.3275 194.319 69.8527 194.042 70.3162C193.765 70.7797 193.421 71.174 193.01 71.4992C192.599 71.8206 192.138 72.0655 191.625 72.2337C191.117 72.4019 190.573 72.486 189.994 72.486C189.015 72.486 188.144 72.2468 187.381 71.7683C186.619 71.2899 186.019 70.6096 185.581 69.7275C185.144 68.8453 184.925 67.7988 184.925 66.5877C184.925 65.3767 185.144 64.3301 185.581 63.448C186.019 62.5658 186.619 61.8856 187.381 61.4071C188.144 60.9287 189.015 60.6895 189.994 60.6895C190.573 60.6895 191.117 60.7736 191.625 60.9418C192.138 61.11 192.599 61.3567 193.01 61.6818C193.421 62.0033 193.765 62.3958 194.042 62.8592C194.319 63.319 194.509 63.8442 194.614 64.4347Z" fill="#0EA5E9"/>
<path d="M201.883 60.8464V72.329H200.492V60.8464H201.883Z" fill="#0EA5E9"/>
<path d="M208.773 72.329H207.315L211.531 60.8464H212.967L217.183 72.329H215.725L212.294 62.663H212.204L208.773 72.329ZM209.311 67.8436H215.187V69.0771H209.311V67.8436Z" fill="#0EA5E9"/>
<path d="M220.633 62.0799V60.8464H229.245V62.0799H225.635V72.329H224.244V62.0799H220.633Z" fill="#0EA5E9"/>
<path d="M236.413 60.8464V72.329H235.023V60.8464H236.413Z" fill="#0EA5E9"/>
<path d="M252.521 66.5877C252.521 67.7988 252.302 68.8453 251.865 69.7275C251.427 70.6096 250.828 71.2899 250.065 71.7683C249.302 72.2468 248.432 72.486 247.452 72.486C246.473 72.486 245.602 72.2468 244.84 71.7683C244.077 71.2899 243.477 70.6096 243.04 69.7275C242.602 68.8453 242.384 67.7988 242.384 66.5877C242.384 65.3767 242.602 64.3301 243.04 63.448C243.477 62.5658 244.077 61.8856 244.84 61.4071C245.602 60.9287 246.473 60.6895 247.452 60.6895C248.432 60.6895 249.302 60.9287 250.065 61.4071C250.828 61.8856 251.427 62.5658 251.865 63.448C252.302 64.3301 252.521 65.3767 252.521 66.5877ZM251.175 66.5877C251.175 65.5935 251.009 64.7543 250.676 64.0703C250.347 63.3863 249.901 62.8686 249.336 62.5172C248.775 62.1659 248.147 61.9902 247.452 61.9902C246.757 61.9902 246.127 62.1659 245.563 62.5172C245.002 62.8686 244.555 63.3863 244.223 64.0703C243.894 64.7543 243.729 65.5935 243.729 66.5877C243.729 67.582 243.894 68.4211 244.223 69.1051C244.555 69.7891 245.002 70.3068 245.563 70.6582C246.127 71.0095 246.757 71.1852 247.452 71.1852C248.147 71.1852 248.775 71.0095 249.336 70.6582C249.901 70.3068 250.347 69.7891 250.676 69.1051C251.009 68.4211 251.175 67.582 251.175 66.5877Z" fill="#0EA5E9"/>
<path d="M267.595 60.8464V72.329H266.25L259.993 63.3134H259.881V72.329H258.49V60.8464H259.836L266.115 69.8845H266.227V60.8464H267.595Z" fill="#0EA5E9"/>
<path d="M282.081 72.329V60.8464H285.961C286.858 60.8464 287.594 60.9997 288.17 61.3062C288.745 61.609 289.172 62.0257 289.448 62.5565C289.725 63.0873 289.863 63.6909 289.863 64.3675C289.863 65.044 289.725 65.6439 289.448 66.1672C289.172 66.6905 288.747 67.1017 288.175 67.4007C287.604 67.696 286.873 67.8436 285.983 67.8436H282.843V66.5877H285.938C286.551 66.5877 287.045 66.498 287.419 66.3186C287.796 66.1392 288.069 65.885 288.237 65.5561C288.409 65.2234 288.495 64.8272 288.495 64.3675C288.495 63.9077 288.409 63.5059 288.237 63.162C288.065 62.8181 287.79 62.5527 287.413 62.3659C287.035 62.1752 286.536 62.0799 285.916 62.0799H283.471V72.329H282.081ZM287.486 67.1708L290.312 72.329H288.697L285.916 67.1708H287.486Z" fill="#0EA5E9"/>
<path d="M296.282 72.329H294.825L299.041 60.8464H300.476L304.692 72.329H303.235L299.803 62.663H299.714L296.282 72.329ZM296.821 67.8436H302.696V69.0771H296.821V67.8436Z" fill="#0EA5E9"/>
<path d="M311.304 72.329L308.164 60.8464H309.577L311.977 70.1984H312.089L314.533 60.8464H316.103L318.548 70.1984H318.66L321.059 60.8464H322.472L319.333 72.329H317.897L315.363 63.1788H315.273L312.739 72.329H311.304Z" fill="#0EA5E9"/>
<path d="M327.413 72.329H325.955L330.171 60.8464H331.607L335.823 72.329H334.365L330.934 62.663H330.844L327.413 72.329ZM327.951 67.8436H333.827V69.0771H327.951V67.8436Z" fill="#0EA5E9"/>
<path d="M341.243 72.329V60.8464H342.633V71.0955H347.971V72.329H341.243Z" fill="#0EA5E9"/>
<path d="M353.755 72.329V60.8464H357.635C358.536 60.8464 359.272 61.009 359.844 61.3342C360.42 61.6557 360.846 62.0911 361.122 62.6406C361.399 63.19 361.537 63.803 361.537 64.4796C361.537 65.1561 361.399 65.771 361.122 66.3242C360.85 66.8774 360.427 67.3185 359.855 67.6474C359.283 67.9726 358.551 68.1352 357.657 68.1352H354.877V66.9017H357.613C358.229 66.9017 358.725 66.7952 359.098 66.5821C359.472 66.369 359.743 66.0812 359.911 65.7187C360.083 65.3524 360.169 64.9393 360.169 64.4796C360.169 64.0198 360.083 63.6087 359.911 63.2461C359.743 62.8835 359.47 62.5995 359.093 62.3939C358.715 62.1846 358.214 62.0799 357.59 62.0799H355.146V72.329H353.755Z" fill="#0EA5E9"/>
<path d="M368.799 60.8464V72.329H367.409V60.8464H368.799Z" fill="#0EA5E9"/>
<path d="M384.324 60.8464V72.329H382.978L376.721 63.3134H376.609V72.329H375.218V60.8464H376.564L382.843 69.8845H382.956V60.8464H384.324Z" fill="#0EA5E9"/>
<path d="M394.281 72.329H390.737V60.8464H394.438C395.552 60.8464 396.505 61.0763 397.297 61.5361C398.089 61.9921 398.697 62.6481 399.119 63.504C399.542 64.3562 399.753 65.3767 399.753 66.5653C399.753 67.7614 399.54 68.7911 399.114 69.6546C398.688 70.5143 398.067 71.1759 397.252 71.6394C396.437 72.0991 395.447 72.329 394.281 72.329ZM392.128 71.0955H394.191C395.14 71.0955 395.927 70.9124 396.551 70.546C397.176 70.1797 397.641 69.6583 397.947 68.9818C398.254 68.3052 398.407 67.4997 398.407 66.5653C398.407 65.6383 398.256 64.8403 397.953 64.1712C397.65 63.4984 397.198 62.9826 396.596 62.6238C395.994 62.2612 395.245 62.0799 394.348 62.0799H392.128V71.0955Z" fill="#0EA5E9"/>
<path d="M407.107 60.8464V72.329H405.717V60.8464H407.107Z" fill="#0EA5E9"/>
</svg>
