<svg width="170" height="66" viewBox="0 0 170 66" fill="none" xmlns="http://www.w3.org/2000/svg">
<path d="M59.9627 55.3945H52.761L44.0233 44.5971V55.3945H37.8301V21.73H44.0233V42.0761L52.2811 31.6115H59.6745L50.4543 43.3599L59.9627 55.3945Z" fill="white"/>
<path d="M76.9645 31.6113H82.7765V55.3943H76.9645V53.3554C74.9722 55.3038 72.4993 56.0574 69.1388 56.0574C65.9376 56.0574 63.1934 54.8446 60.9065 52.4191C58.6196 49.9936 57.4753 47.0205 57.4736 43.5C57.4736 39.9799 58.6179 37.0072 60.9065 34.5816C63.1951 32.1561 65.9392 30.9434 69.1388 30.9434C72.4993 30.9434 75.0579 31.922 76.9645 33.7294V31.6113ZM65.5372 48.3306C66.7858 49.5812 68.3702 50.2064 70.2905 50.2064C72.2109 50.2064 73.8024 49.5812 75.0653 48.3306C76.3276 47.0801 76.9587 45.4707 76.9587 43.5024C76.9587 41.5342 76.3276 39.925 75.0653 38.675C73.803 37.4245 72.2114 36.7992 70.2905 36.7992C68.3697 36.7992 66.7852 37.4245 65.5372 38.675C64.2892 39.9256 63.6652 41.5347 63.6652 43.5024C63.6652 45.4701 64.2892 47.0795 65.5372 48.3306Z" fill="white"/>
<path d="M162.544 31.6118H168.356V55.3948H162.544V53.3559C160.552 55.3043 158.079 56.0579 154.718 56.0579C151.517 56.0579 148.773 54.8451 146.486 52.4196C144.198 49.9941 143.054 47.021 143.053 43.5005C143.053 39.9804 144.197 37.0077 146.486 34.5821C148.774 32.1566 151.518 30.9438 154.718 30.9438C158.079 30.9438 160.638 31.9225 162.544 33.7299V31.6118ZM151.117 48.3311C152.365 49.5817 153.95 50.2069 155.87 50.2069C157.791 50.2069 159.383 49.5817 160.645 48.3311C161.907 47.0806 162.539 45.4712 162.539 43.5029C162.539 41.5346 161.907 39.9255 160.645 38.6755C159.383 37.425 157.791 36.7997 155.87 36.7997C153.95 36.7997 152.365 37.425 151.117 38.6755C149.869 39.9261 149.245 41.5352 149.245 43.5029C149.245 45.4706 149.869 47.08 151.117 48.3311Z" fill="white"/>
<path d="M92.3768 33.9543C94.3089 30.6504 99.6747 31.1365 99.6747 31.1365V37.4286C92.2475 36.7509 92.3768 43.4696 92.3768 43.4696V55.3949H86.1836V31.6119H92.3768V33.9543Z" fill="white"/>
<path d="M114.42 37.51H108.998V47.4038C108.998 48.2286 109.206 48.831 109.622 49.2111C110.038 49.5911 110.646 49.8051 111.446 49.8529C112.438 49.8995 113.432 49.8916 114.423 49.8293V55.3948C110.165 55.8705 107.164 55.4742 105.421 54.2057C103.676 52.9374 102.772 50.6701 102.772 47.4038V37.51V31.6118V26.3921H108.998V31.6118H114.423L114.42 37.51Z" fill="white"/>
<path d="M137.184 52.4211C134.718 54.8466 131.71 56.0593 128.158 56.0593C124.606 56.0593 121.605 54.8466 119.156 52.4211C116.707 49.995 115.482 47.0219 115.482 43.5019C115.482 39.9819 116.707 37.0091 119.156 34.5836C121.604 32.1581 124.605 30.9453 128.158 30.9453C131.711 30.9453 134.719 32.1581 137.184 34.5836C139.648 37.0118 140.881 39.9846 140.881 43.5019C140.881 47.0192 139.648 49.9923 137.184 52.4211ZM123.524 48.211C124.756 49.4485 126.301 50.067 128.158 50.0665C130.015 50.0659 131.567 49.4475 132.815 48.211C134.063 46.9746 134.856 45.4047 134.856 43.5019C134.856 41.5992 134.063 40.03 132.815 38.7928C131.567 37.5556 130.016 36.9382 128.158 36.9382C126.3 36.9382 124.756 37.5564 123.524 38.7928C122.291 40.0292 121.557 41.5992 121.557 43.5019C121.557 45.4047 122.292 46.9746 123.524 48.211Z" fill="white"/>
<path d="M166.38 26.6176C165.839 26.6176 165.31 26.4586 164.86 26.1608C164.41 25.863 164.06 25.4398 163.853 24.9446C163.646 24.4493 163.592 23.9044 163.697 23.3787C163.803 22.853 164.063 22.3701 164.446 21.9911C164.828 21.612 165.316 21.3539 165.846 21.2493C166.377 21.1448 166.927 21.1984 167.427 21.4036C167.927 21.6087 168.354 21.9561 168.655 22.4017C168.955 22.8474 169.116 23.3714 169.116 23.9074C169.115 24.626 168.827 25.315 168.314 25.8231C167.801 26.3312 167.105 26.6169 166.38 26.6176ZM166.38 21.7298C165.945 21.7298 165.52 21.8576 165.158 22.097C164.797 22.3364 164.515 22.6767 164.349 23.0748C164.182 23.4729 164.139 23.9109 164.224 24.3335C164.309 24.7561 164.518 25.1443 164.826 25.4489C165.133 25.7535 165.525 25.9609 165.952 26.0449C166.378 26.1288 166.82 26.0856 167.222 25.9206C167.624 25.7556 167.967 25.4762 168.209 25.1179C168.45 24.7596 168.579 24.3383 168.579 23.9074C168.578 23.33 168.346 22.7765 167.934 22.3683C167.522 21.9601 166.963 21.7305 166.38 21.7298Z" fill="white"/>
<path d="M166.953 25.1566L166.459 24.3198H166.095V25.1566H165.615V22.7466H166.588C166.803 22.7464 167.008 22.8304 167.16 22.9803C167.312 23.1302 167.397 23.3336 167.398 23.5458C167.398 23.6936 167.353 23.838 167.269 23.9602C167.185 24.086 167.067 24.1856 166.928 24.2472L167.467 25.1566H166.953ZM166.098 23.1911V23.9039H166.592C166.637 23.904 166.68 23.8947 166.721 23.8766C166.761 23.8584 166.797 23.8318 166.825 23.7987C166.89 23.7301 166.925 23.6394 166.923 23.5458C166.925 23.4527 166.89 23.3624 166.825 23.2946C166.796 23.2619 166.76 23.2357 166.72 23.2178C166.68 23.1999 166.636 23.1908 166.592 23.1911H166.098Z" fill="white"/>
<path d="M90.6336 59.7466V60.7383H89.1999V65.0085H88.1527V60.7383H86.7256V59.7466H90.6336Z" fill="white"/>
<path d="M93.0208 64.0167H95.263V65.0085H91.9775V59.7466H95.2247V60.7383H93.0248V61.8595H95.0361V62.8368H93.0248L93.0208 64.0167Z" fill="white"/>
<path d="M99.2414 65.1127C98.8749 65.1242 98.5099 65.0605 98.1695 64.9256C97.829 64.7907 97.5204 64.5874 97.263 64.3287C96.7616 63.8016 96.4824 63.1047 96.4824 62.3804C96.4824 61.6562 96.7616 60.9593 97.263 60.4322C97.5206 60.1738 97.8293 59.9707 98.1697 59.8358C98.5101 59.701 98.875 59.6371 99.2414 59.6482C99.7067 59.6442 100.165 59.7594 100.572 59.9827C100.967 60.1931 101.296 60.5062 101.524 60.8882L100.622 61.4109C100.493 61.1768 100.298 60.9848 100.06 60.8582C99.7284 60.6886 99.3517 60.6246 98.9816 60.6749C98.6115 60.7252 98.2661 60.8873 97.9924 61.1391C97.6872 61.4832 97.5189 61.9256 97.5189 62.3837C97.5189 62.8418 97.6872 63.2842 97.9924 63.6283C98.2669 63.8801 98.613 64.0422 98.9837 64.0925C99.3544 64.1427 99.7317 64.0788 100.064 63.9092C100.3 63.7863 100.494 63.5972 100.622 63.3657L101.524 63.8883C101.297 64.27 100.969 64.583 100.576 64.7938C100.167 65.0126 99.7067 65.1225 99.2414 65.1127Z" fill="white"/>
<path d="M105.943 59.7466H106.981V65.0085H105.943V62.829H103.965V65.0085H102.919V59.7466H103.965V61.8372H105.943V59.7466Z" fill="white"/>
<path d="M111.796 59.7466H112.844V65.0085H112.052L109.776 61.7915V65.0085H108.729V59.7466H109.52L111.796 62.957V59.7466Z" fill="white"/>
<path d="M119.059 64.3215C118.605 64.7783 118.004 65.0646 117.361 65.1314C116.717 65.1983 116.069 65.0416 115.529 64.6881C114.989 64.3347 114.589 63.8064 114.398 63.1934C114.208 62.5805 114.238 61.9209 114.483 61.3275C114.729 60.734 115.175 60.2434 115.745 59.9395C116.315 59.6355 116.974 59.5371 117.609 59.6611C118.244 59.785 118.817 60.1236 119.228 60.619C119.639 61.1144 119.864 61.7358 119.864 62.3772C119.871 62.7386 119.804 63.0976 119.665 63.432C119.527 63.7664 119.321 64.0692 119.059 64.3215ZM115.881 63.6146C116.21 63.9259 116.648 64.0996 117.103 64.0996C117.558 64.0996 117.996 63.9259 118.325 63.6146C118.643 63.278 118.819 62.8342 118.819 62.3733C118.819 61.9124 118.643 61.4687 118.325 61.132C117.997 60.8186 117.559 60.6435 117.103 60.6435C116.647 60.6435 116.209 60.8186 115.881 61.132C115.562 61.4682 115.385 61.9121 115.385 62.3733C115.385 62.8345 115.562 63.2784 115.881 63.6146Z" fill="white"/>
<path d="M122.411 64.0167H124.438V65.0085H121.365V59.7466H122.411V64.0167Z" fill="white"/>
<path d="M129.922 64.3215C129.467 64.7783 128.867 65.0646 128.223 65.1314C127.579 65.1983 126.932 65.0416 126.391 64.6881C125.851 64.3347 125.451 63.8064 125.261 63.1934C125.07 62.5805 125.1 61.9209 125.346 61.3275C125.591 60.734 126.037 60.2434 126.607 59.9395C127.177 59.6355 127.836 59.5371 128.472 59.6611C129.107 59.785 129.679 60.1236 130.09 60.619C130.501 61.1144 130.726 61.7358 130.726 62.3772C130.733 62.7386 130.666 63.0975 130.527 63.432C130.389 63.7664 130.183 64.0691 129.922 64.3215ZM126.743 63.6146C127.072 63.9258 127.51 64.0995 127.964 64.0995C128.419 64.0995 128.857 63.9258 129.186 63.6146C129.504 63.2784 129.682 62.8345 129.682 62.3733C129.682 61.9121 129.504 61.4682 129.186 61.132C128.858 60.8184 128.42 60.6431 127.964 60.6431C127.509 60.6431 127.071 60.8184 126.743 61.132C126.425 61.4682 126.247 61.9121 126.247 62.3733C126.247 62.8345 126.425 63.2784 126.743 63.6146Z" fill="white"/>
<path d="M137.431 62.1831V62.5921C137.431 63.3438 137.188 63.9536 136.702 64.4214C136.216 64.8892 135.589 65.1218 134.821 65.1192C134.445 65.1311 134.071 65.067 133.721 64.9309C133.371 64.7947 133.052 64.5894 132.785 64.3273C132.523 64.0771 132.316 63.7759 132.176 63.4427C132.037 63.1095 131.968 62.7515 131.975 62.3909C131.971 62.0281 132.04 61.6681 132.179 61.3323C132.318 60.9966 132.523 60.6917 132.783 60.4359C133.042 60.1801 133.351 59.9785 133.691 59.8429C134.031 59.7074 134.394 59.6407 134.761 59.6469C135.235 59.6413 135.703 59.7565 136.119 59.9814C136.512 60.1881 136.842 60.4954 137.074 60.8712L136.178 61.3821C136.041 61.158 135.843 60.9769 135.606 60.8594C135.343 60.7216 135.05 60.6515 134.753 60.6556C134.522 60.6482 134.292 60.6882 134.077 60.7729C133.862 60.8577 133.668 60.9855 133.505 61.1482C133.343 61.3121 133.216 61.5068 133.132 61.7206C133.048 61.9344 133.008 62.1628 133.016 62.3922C133.008 62.62 133.049 62.847 133.134 63.0586C133.22 63.2703 133.349 63.462 133.513 63.6217C133.688 63.7864 133.896 63.9142 134.122 63.9976C134.349 64.0809 134.59 64.1179 134.832 64.1065C135.186 64.1217 135.536 64.0306 135.837 63.8452C136.099 63.6716 136.291 63.412 136.379 63.1121H134.771V62.1975L137.431 62.1831Z" fill="white"/>
<path d="M138.942 59.7466H139.99V65.0085H138.942V59.7466Z" fill="white"/>
<path d="M142.775 64.0167H145.017V65.0085H141.731V59.7466H144.98V60.7383H142.779V61.8595H144.789V62.8368H142.777L142.775 64.0167Z" fill="white"/>
<path d="M148.33 65.1137C147.862 65.1296 147.4 65.0082 147.002 64.7648C146.649 64.5398 146.383 64.2051 146.243 63.8135L147.139 63.2909C147.345 63.8283 147.752 64.0966 148.36 64.0958C148.586 64.1141 148.812 64.0586 149.004 63.9377C149.071 63.8889 149.125 63.8243 149.161 63.7496C149.197 63.675 149.213 63.5926 149.209 63.5101C149.204 63.4276 149.179 63.3474 149.135 63.277C149.092 63.2065 149.031 63.148 148.959 63.1066C148.675 62.959 148.375 62.8466 148.063 62.7721C147.858 62.714 147.657 62.6437 147.461 62.5618C147.286 62.4869 147.121 62.3926 146.969 62.2808C146.807 62.1652 146.677 62.0111 146.591 61.8326C146.501 61.6345 146.456 61.419 146.459 61.2015C146.451 60.9856 146.492 60.7706 146.581 60.5732C146.67 60.3759 146.803 60.2014 146.971 60.0634C147.317 59.7786 147.755 59.6277 148.204 59.6388C148.605 59.6304 148.999 59.7385 149.337 59.9497C149.669 60.1632 149.933 60.4641 150.101 60.8187L149.22 61.3217C149.009 60.8714 148.67 60.6457 148.204 60.6449C148.022 60.6348 147.841 60.6864 147.691 60.7912C147.633 60.8358 147.585 60.8934 147.553 60.9595C147.521 61.0255 147.505 61.0982 147.507 61.1715C147.505 61.2504 147.523 61.3285 147.56 61.3987C147.596 61.469 147.649 61.5292 147.715 61.5739C147.963 61.7248 148.232 61.8375 148.514 61.9084C148.677 61.9581 148.801 61.9973 148.882 62.0247C148.964 62.0522 149.08 62.0953 149.224 62.1554C149.34 62.1985 149.452 62.2528 149.558 62.3174C149.65 62.3792 149.738 62.4468 149.821 62.5199C149.913 62.5937 149.991 62.682 150.052 62.7813C150.11 62.8844 150.154 62.9941 150.184 63.1079C150.223 63.244 150.242 63.3848 150.241 63.5261C150.249 63.747 150.206 63.9668 150.113 64.1679C150.02 64.369 149.881 64.5457 149.707 64.6838C149.36 64.9704 148.901 65.1137 148.33 65.1137Z" fill="white"/>
<path d="M157.03 64.0167H159.056V65.0085H155.982V59.7466H157.03V64.0167Z" fill="white"/>
<path d="M163.384 59.7466V60.7383H161.952V65.0085H160.905V60.7383H159.478V59.7466H163.384Z" fill="white"/>
<path d="M166.834 59.7472C167.175 59.7394 167.514 59.803 167.828 59.9338C168.143 60.0646 168.426 60.2597 168.659 60.5064C169.13 61.0181 169.391 61.6857 169.391 62.3782C169.391 63.0707 169.13 63.7383 168.659 64.25C168.426 64.4966 168.143 64.6918 167.828 64.8226C167.514 64.9534 167.175 65.017 166.834 65.0092H164.724V59.7472H166.834ZM166.834 64.0174C167.043 64.025 167.251 63.9884 167.445 63.91C167.638 63.8316 167.813 63.7132 167.956 63.5627C168.236 63.2301 168.389 62.811 168.389 62.3782C168.389 61.9454 168.236 61.5263 167.956 61.1937C167.812 61.0434 167.638 60.9251 167.444 60.8467C167.251 60.7683 167.043 60.7316 166.834 60.739H165.779V64.0174H166.834Z" fill="white"/>
<path d="M29.5377 55.3944H14.9229V40.918C18.7985 40.918 22.5155 42.4431 25.2562 45.1579C27.997 47.8727 29.537 51.5548 29.5377 55.3944Z" fill="#27B373"/>
<path d="M14.9229 40.918V26.4375H29.5377C29.538 28.3391 29.1602 30.2221 28.4259 31.979C27.6916 33.7359 26.6151 35.3322 25.2579 36.6769C23.9008 38.0216 22.2895 39.0883 20.5162 39.816C18.7429 40.5437 16.8423 40.9182 14.9229 40.918Z" fill="#F3BC2F"/>
<path d="M14.9252 55.3948C6.68217 55.3948 0 48.911 0 40.9184C0 32.9257 6.68217 26.4419 14.9252 26.4419" fill="#0078D4"/>
<path d="M0 12.4546C8.24302 12.4546 14.9252 18.7166 14.9252 26.4417C14.9252 34.1668 8.24302 40.4288 0 40.4288V12.4546Z" fill="#EE3E36"/>
<path d="M94.8538 4.16814C94.8538 4.6628 94.7371 5.12947 94.5038 5.56814C94.2705 6.0068 93.8971 6.36614 93.3838 6.64614C92.8705 6.9168 92.2125 7.05214 91.4098 7.05214H89.6458V11.0001H88.0498V1.27014H91.4098C92.1565 1.27014 92.7865 1.4008 93.2998 1.66214C93.8225 1.91414 94.2098 2.25947 94.4618 2.69814C94.7231 3.1368 94.8538 3.6268 94.8538 4.16814ZM91.4098 5.75014C92.0165 5.75014 92.4691 5.6148 92.7678 5.34414C93.0665 5.06414 93.2158 4.67214 93.2158 4.16814C93.2158 3.10414 92.6138 2.57214 91.4098 2.57214H89.6458V5.75014H91.4098Z" fill="#475569"/>
<path d="M99.582 11.1261C98.854 11.1261 98.196 10.9628 97.608 10.6361C97.02 10.3001 96.558 9.83347 96.222 9.23614C95.886 8.62947 95.718 7.92947 95.718 7.13614C95.718 6.35214 95.8906 5.6568 96.236 5.05014C96.5813 4.44347 97.0526 3.9768 97.65 3.65014C98.2473 3.32347 98.9146 3.16014 99.652 3.16014C100.389 3.16014 101.057 3.32347 101.654 3.65014C102.251 3.9768 102.723 4.44347 103.068 5.05014C103.413 5.6568 103.586 6.35214 103.586 7.13614C103.586 7.92014 103.409 8.61547 103.054 9.22214C102.699 9.8288 102.214 10.3001 101.598 10.6361C100.991 10.9628 100.319 11.1261 99.582 11.1261ZM99.582 9.74014C99.9926 9.74014 100.375 9.64214 100.73 9.44614C101.094 9.25014 101.388 8.95614 101.612 8.56414C101.836 8.17214 101.948 7.69614 101.948 7.13614C101.948 6.57614 101.841 6.1048 101.626 5.72214C101.411 5.33014 101.127 5.03614 100.772 4.84014C100.417 4.64414 100.035 4.54614 99.624 4.54614C99.2133 4.54614 98.8306 4.64414 98.476 4.84014C98.1306 5.03614 97.8553 5.33014 97.65 5.72214C97.4446 6.1048 97.342 6.57614 97.342 7.13614C97.342 7.9668 97.552 8.6108 97.972 9.06814C98.4013 9.51614 98.938 9.74014 99.582 9.74014Z" fill="#475569"/>
<path d="M115.384 3.28614L112.99 11.0001H111.31L109.756 5.30214L108.202 11.0001H106.522L104.114 3.28614H105.738L107.348 9.48814L108.986 3.28614H110.652L112.22 9.46014L113.816 3.28614H115.384Z" fill="#475569"/>
<path d="M123.506 6.95414C123.506 7.24347 123.488 7.5048 123.45 7.73814H117.556C117.603 8.35414 117.832 8.8488 118.242 9.22214C118.653 9.59547 119.157 9.78214 119.754 9.78214C120.613 9.78214 121.22 9.4228 121.574 8.70414H123.296C123.063 9.41347 122.638 9.9968 122.022 10.4541C121.416 10.9021 120.66 11.1261 119.754 11.1261C119.017 11.1261 118.354 10.9628 117.766 10.6361C117.188 10.3001 116.73 9.83347 116.394 9.23614C116.068 8.62947 115.904 7.92947 115.904 7.13614C115.904 6.3428 116.063 5.64747 116.38 5.05014C116.707 4.44347 117.16 3.9768 117.738 3.65014C118.326 3.32347 118.998 3.16014 119.754 3.16014C120.482 3.16014 121.131 3.3188 121.7 3.63614C122.27 3.95347 122.713 4.40147 123.03 4.98014C123.348 5.54947 123.506 6.20747 123.506 6.95414ZM121.84 6.45014C121.831 5.86214 121.621 5.3908 121.21 5.03614C120.8 4.68147 120.291 4.50414 119.684 4.50414C119.134 4.50414 118.662 4.68147 118.27 5.03614C117.878 5.38147 117.645 5.8528 117.57 6.45014H121.84Z" fill="#475569"/>
<path d="M126.533 4.40614C126.766 4.01414 127.074 3.7108 127.457 3.49614C127.849 3.27214 128.311 3.16014 128.843 3.16014V4.81214H128.437C127.812 4.81214 127.336 4.9708 127.009 5.28814C126.692 5.60547 126.533 6.15614 126.533 6.94014V11.0001H124.937V3.28614H126.533V4.40614Z" fill="#475569"/>
<path d="M137.24 6.95414C137.24 7.24347 137.221 7.5048 137.184 7.73814H131.29C131.337 8.35414 131.565 8.8488 131.976 9.22214C132.387 9.59547 132.891 9.78214 133.488 9.78214C134.347 9.78214 134.953 9.4228 135.308 8.70414H137.03C136.797 9.41347 136.372 9.9968 135.756 10.4541C135.149 10.9021 134.393 11.1261 133.488 11.1261C132.751 11.1261 132.088 10.9628 131.5 10.6361C130.921 10.3001 130.464 9.83347 130.128 9.23614C129.801 8.62947 129.638 7.92947 129.638 7.13614C129.638 6.3428 129.797 5.64747 130.114 5.05014C130.441 4.44347 130.893 3.9768 131.472 3.65014C132.06 3.32347 132.732 3.16014 133.488 3.16014C134.216 3.16014 134.865 3.3188 135.434 3.63614C136.003 3.95347 136.447 4.40147 136.764 4.98014C137.081 5.54947 137.24 6.20747 137.24 6.95414ZM135.574 6.45014C135.565 5.86214 135.355 5.3908 134.944 5.03614C134.533 4.68147 134.025 4.50414 133.418 4.50414C132.867 4.50414 132.396 4.68147 132.004 5.03614C131.612 5.38147 131.379 5.8528 131.304 6.45014H135.574Z" fill="#475569"/>
<path d="M138.139 7.10814C138.139 6.33347 138.297 5.64747 138.615 5.05014C138.941 4.4528 139.38 3.9908 139.931 3.66414C140.491 3.32814 141.111 3.16014 141.793 3.16014C142.297 3.16014 142.791 3.27214 143.277 3.49614C143.771 3.7108 144.163 4.00014 144.453 4.36414V0.640137H146.063V11.0001H144.453V9.83814C144.191 10.2115 143.827 10.5195 143.361 10.7621C142.903 11.0048 142.376 11.1261 141.779 11.1261C141.107 11.1261 140.491 10.9581 139.931 10.6221C139.38 10.2768 138.941 9.8008 138.615 9.19414C138.297 8.57814 138.139 7.8828 138.139 7.10814ZM144.453 7.13614C144.453 6.60414 144.341 6.14214 144.117 5.75014C143.902 5.35814 143.617 5.05947 143.263 4.85414C142.908 4.6488 142.525 4.54614 142.115 4.54614C141.704 4.54614 141.321 4.6488 140.967 4.85414C140.612 5.05014 140.323 5.34414 140.099 5.73614C139.884 6.1188 139.777 6.57614 139.777 7.10814C139.777 7.64014 139.884 8.1068 140.099 8.50814C140.323 8.90947 140.612 9.21747 140.967 9.43214C141.331 9.63747 141.713 9.74014 142.115 9.74014C142.525 9.74014 142.908 9.63747 143.263 9.43214C143.617 9.2268 143.902 8.92814 144.117 8.53614C144.341 8.1348 144.453 7.66814 144.453 7.13614Z" fill="#475569"/>
<path d="M153.112 4.43414C153.382 4.0608 153.751 3.75747 154.218 3.52414C154.694 3.28147 155.221 3.16014 155.8 3.16014C156.481 3.16014 157.097 3.32347 157.648 3.65014C158.198 3.9768 158.632 4.44347 158.95 5.05014C159.267 5.64747 159.426 6.33347 159.426 7.10814C159.426 7.8828 159.267 8.57814 158.95 9.19414C158.632 9.8008 158.194 10.2768 157.634 10.6221C157.083 10.9581 156.472 11.1261 155.8 11.1261C155.202 11.1261 154.67 11.0095 154.204 10.7761C153.746 10.5428 153.382 10.2441 153.112 9.88014V11.0001H151.516V0.640137H153.112V4.43414ZM157.802 7.10814C157.802 6.57614 157.69 6.1188 157.466 5.73614C157.251 5.34414 156.962 5.05014 156.598 4.85414C156.243 4.6488 155.86 4.54614 155.45 4.54614C155.048 4.54614 154.666 4.6488 154.302 4.85414C153.947 5.05947 153.658 5.35814 153.434 5.75014C153.219 6.14214 153.112 6.60414 153.112 7.13614C153.112 7.66814 153.219 8.1348 153.434 8.53614C153.658 8.92814 153.947 9.2268 154.302 9.43214C154.666 9.63747 155.048 9.74014 155.45 9.74014C155.86 9.74014 156.243 9.63747 156.598 9.43214C156.962 9.21747 157.251 8.90947 157.466 8.50814C157.69 8.1068 157.802 7.64014 157.802 7.10814Z" fill="#475569"/>
<path d="M167.808 3.28614L163.076 14.6261H161.424L162.992 10.8741L159.954 3.28614H161.732L163.902 9.16614L166.156 3.28614H167.808Z" fill="#475569"/>
</svg>
