<svg width="198" height="58" viewBox="0 0 198 58" fill="none" xmlns="http://www.w3.org/2000/svg">
<g clip-path="url(#clip0_308_7358)">
<path d="M22.9517 57.4961H22.8571C17.4619 57.4961 13.0769 53.0953 13.0769 47.6901V26.3969C13.0769 25.0952 12.0193 24.0348 10.721 24.0348C9.42275 24.0348 8.36519 25.0952 8.36519 26.3969V39.5133H0.936523V26.3969C0.936523 20.9874 5.3258 16.5908 10.7167 16.5908C16.1077 16.5908 20.5013 20.9917 20.5013 26.3969V47.6901C20.5013 48.9918 21.5588 50.0522 22.8571 50.0522H22.9517C24.25 50.0522 25.3075 48.9918 25.3075 47.6901V26.3969C25.3075 20.9874 29.6968 16.5908 35.0878 16.5908H35.2769C40.6722 16.5908 45.0571 20.9917 45.0571 26.3969V47.0263H37.6285V26.3969C37.6285 25.0952 36.5709 24.0348 35.2726 24.0348H35.0835C33.7852 24.0348 32.7276 25.0952 32.7276 26.3969V47.6901C32.7276 53.0996 28.3383 57.4961 22.9474 57.4961H22.9517Z" fill="url(#paint0_linear_308_7358)"/>
<path d="M35.0182 13.3105C38.5107 13.3105 41.342 10.4717 41.342 6.96994C41.342 3.46815 38.5107 0.629395 35.0182 0.629395C31.5256 0.629395 28.6943 3.46815 28.6943 6.96994C28.6943 10.4717 31.5256 13.3105 35.0182 13.3105Z" fill="#7413FF"/>
<path d="M10.5282 13.3106C12.8479 13.3106 14.7284 11.4252 14.7284 9.09941C14.7284 6.77361 12.8479 4.88818 10.5282 4.88818C8.20858 4.88818 6.32812 6.77361 6.32812 9.09941C6.32812 11.4252 8.20858 13.3106 10.5282 13.3106Z" fill="#FF7244"/>
</g>
<g clip-path="url(#clip1_308_7358)">
<path d="M192.405 17.9378C193.044 17.2989 193.818 16.9795 194.723 16.9795C195.628 16.9795 196.403 17.2989 197.041 17.9378C197.68 18.5767 198 19.3511 198 20.2562C198 21.1613 197.68 21.9357 197.041 22.5746C196.403 23.2135 195.628 23.533 194.723 23.533C193.818 23.533 193.044 23.2135 192.405 22.5746C191.766 21.9357 191.446 21.1613 191.446 20.2562C191.446 19.3511 191.766 18.5767 192.405 17.9378ZM194.723 23.2619C195.541 23.2619 196.248 22.9715 196.828 22.3859C197.409 21.8002 197.7 21.0887 197.7 20.2562C197.7 19.4237 197.409 18.7122 196.828 18.1266C196.248 17.5409 195.541 17.2505 194.723 17.2505C193.905 17.2505 193.189 17.5409 192.608 18.1266C192.027 18.7122 191.732 19.4237 191.732 20.2562C191.732 21.0887 192.022 21.8002 192.608 22.3859C193.189 22.9715 193.895 23.2619 194.723 23.2619ZM196.054 19.6657C196.054 20.1352 195.865 20.4644 195.483 20.6531L196.18 21.9309H195.42L194.83 20.7983H194.341V21.9309H193.644V18.5816H194.776C195.168 18.5816 195.478 18.688 195.71 18.8962C195.943 19.1043 196.054 19.3608 196.054 19.6706V19.6657ZM194.341 19.2301V20.1643H194.776C194.955 20.1643 195.101 20.1207 195.202 20.0384C195.304 19.9513 195.357 19.84 195.357 19.7045C195.357 19.3899 195.163 19.235 194.776 19.235H194.341V19.2301Z" fill="#673AB7"/>
<path d="M94.9918 39.3565C93.1357 41.1288 90.8648 42.017 88.1876 42.017C85.5104 42.017 83.248 41.1288 81.4047 39.3565C79.5615 37.5842 78.6377 35.409 78.6377 32.8349C78.6377 30.2608 79.5615 28.0856 81.4047 26.3133C83.2523 24.541 85.5104 23.6528 88.1876 23.6528C90.8648 23.6528 93.1314 24.541 94.9918 26.3133C96.8479 28.0856 97.7759 30.2608 97.7759 32.8349C97.7759 35.409 96.8479 37.5842 94.9918 39.3565ZM84.6978 36.2766C85.6258 37.1813 86.7891 37.6336 88.1876 37.6336C89.5861 37.6336 90.7579 37.1813 91.6987 36.2766C92.6396 35.372 93.1101 34.2247 93.1101 32.8308C93.1101 31.4368 92.6396 30.2896 91.6987 29.3849C90.7579 28.4803 89.5861 28.028 88.1876 28.028C86.7891 28.028 85.6258 28.4803 84.6978 29.3849C83.7697 30.2896 83.3036 31.4368 83.3036 32.8308C83.3036 34.2247 83.7655 35.372 84.6978 36.2766Z" fill="#673AB7"/>
<path d="M114.814 39.3565C112.958 41.1288 110.691 42.017 108.01 42.017C105.328 42.017 103.07 41.1288 101.227 39.3565C99.3837 37.5842 98.46 35.409 98.46 32.8349C98.46 30.2608 99.3837 28.0856 101.227 26.3133C103.07 24.541 105.333 23.6528 108.01 23.6528C110.687 23.6528 112.954 24.541 114.814 26.3133C116.67 28.0856 117.598 30.2608 117.598 32.8349C117.598 35.409 116.67 37.5842 114.814 39.3565ZM104.52 36.2766C105.448 37.1813 106.611 37.6336 108.01 37.6336C109.408 37.6336 110.58 37.1813 111.521 36.2766C112.462 35.372 112.932 34.2247 112.932 32.8308C112.932 31.4368 112.462 30.2896 111.521 29.3849C110.58 28.4803 109.408 28.028 108.01 28.028C106.611 28.028 105.448 28.4803 104.52 29.3849C103.592 30.2896 103.126 31.4368 103.126 32.8308C103.126 34.2247 103.592 35.372 104.52 36.2766Z" fill="#673AB7"/>
<path d="M138.981 41.5322V16.9795H143.921V41.5322H138.981Z" fill="#673AB7"/>
<path d="M133.032 24.138V24.9111C131.582 24.0764 129.944 23.6528 128.109 23.6528C125.432 23.6528 123.17 24.541 121.327 26.3133C119.483 28.0856 118.56 30.2608 118.56 32.8349C118.56 35.409 119.483 37.5842 121.327 39.3565C123.17 41.1288 125.432 42.017 128.109 42.017C129.944 42.017 131.582 41.5893 133.032 40.7587V48.4399H137.698V24.138H133.032ZM131.621 36.2807C130.68 37.1854 129.508 37.6377 128.109 37.6377C126.711 37.6377 125.548 37.1854 124.62 36.2807C123.692 35.3761 123.225 34.2289 123.225 32.8349C123.225 31.4409 123.692 30.2937 124.62 29.3891C125.548 28.4844 126.711 28.0321 128.109 28.0321C129.508 28.0321 130.68 28.4844 131.621 29.3891C132.561 30.2937 133.032 31.4409 133.032 32.8349C133.032 34.2289 132.561 35.3761 131.621 36.2807Z" fill="#673AB7"/>
<path d="M159.33 24.0396V24.9155C157.88 24.0808 156.242 23.6572 154.407 23.6572C151.73 23.6572 149.468 24.5454 147.624 26.3177C145.781 28.0899 144.857 30.2652 144.857 32.8393C144.857 35.4134 145.781 37.5886 147.624 39.3609C149.468 41.1332 151.73 42.0214 154.407 42.0214C156.242 42.0214 157.88 41.5937 159.33 40.7631V41.6389H164.081V24.0396H159.33ZM157.918 36.2851C156.978 37.1898 155.806 37.6421 154.407 37.6421C153.009 37.6421 151.846 37.1898 150.918 36.2851C149.989 35.3805 149.523 34.2333 149.523 32.8393C149.523 31.4453 149.989 30.2981 150.918 29.3934C151.846 28.4888 153.009 28.0365 154.407 28.0365C155.806 28.0365 156.978 28.4888 157.918 29.3934C158.859 30.2981 159.33 31.4453 159.33 32.8393C159.33 34.2333 158.859 35.3805 157.918 36.2851Z" fill="#673AB7"/>
<path d="M72.2426 34.7764C72.2426 36.232 71.0109 37.4204 69.4969 37.4204C67.983 37.4204 66.7513 36.2361 66.7513 34.7764V24.1387H61.7261V34.7805C61.7261 36.2361 60.4944 37.4245 58.9762 37.4245C57.458 37.4245 56.2306 36.2402 56.2306 34.7805V24.1387H51.2012V34.7805C51.2012 38.9007 54.6867 42.2561 58.9762 42.2561C61.0077 42.2561 62.8509 41.4995 64.2366 40.27C65.6222 41.4995 67.4655 42.2561 69.4969 42.2561C73.7822 42.2561 77.272 38.9048 77.272 34.7805V24.1387H72.2468V34.7805L72.2426 34.7764Z" fill="#673AB7"/>
<path d="M186.687 24.1387V34.7805C186.687 36.2361 185.456 37.4245 183.942 37.4245C182.428 37.4245 181.196 36.2402 181.196 34.7805V24.1387H176.171V34.7805C176.171 36.2361 174.939 37.4245 173.421 37.4245C171.903 37.4245 170.676 36.2402 170.676 34.7805V24.1387H165.65V34.7805C165.65 38.9007 169.136 42.2561 173.425 42.2561C175.457 42.2561 177.3 41.4995 178.686 40.27C180.071 41.4995 181.915 42.2561 183.946 42.2561C188.231 42.2561 191.721 38.9048 191.721 34.7805V24.1387H186.696H186.687Z" fill="#673AB7"/>
</g>
<defs>
<linearGradient id="paint0_linear_308_7358" x1="0.841945" y1="38.4443" x2="45.807" y2="34.521" gradientUnits="userSpaceOnUse">
<stop stop-color="#FDD62C"/>
<stop offset="0.27" stop-color="#FF7244"/>
<stop offset="0.63" stop-color="#CC38FF"/>
<stop offset="1" stop-color="#7413FF"/>
</linearGradient>
<clipPath id="clip0_308_7358">
<rect width="44.1206" height="56.8666" fill="white" transform="translate(0.936523 0.629395)"/>
</clipPath>
<clipPath id="clip1_308_7358">
<rect width="146.798" height="31.4567" fill="white" transform="translate(51.2021 16.9795)"/>
</clipPath>
</defs>
</svg>
